<?xml version="1.0" encoding="UTF-8"?>
<svg version="1.1" xmlns="http://www.w3.org/2000/svg" width="1280" height="853">
<path d="M0 0 C422.4 0 844.8 0 1280 0 C1280 281.49 1280 562.98 1280 853 C857.6 853 435.2 853 0 853 C0 571.51 0 290.02 0 0 Z " fill="#FEFEFE" transform="translate(0,0)"/>
<path d="M0 0 C422.4 0 844.8 0 1280 0 C1280 93.72 1280 187.44 1280 284 C857.6 284 435.2 284 0 284 C0 190.28 0 96.56 0 0 Z " fill="#000000" transform="translate(0,569)"/>
<path d="M0 0 C422.4 0 844.8 0 1280 0 C1280 93.72 1280 187.44 1280 284 C857.6 284 435.2 284 0 284 C0 190.28 0 96.56 0 0 Z " fill="#CE1126" transform="translate(0,0)"/>
<path d="M0 0 C2.89942122 2.89942122 3.64820365 6.49055751 4.875 10.3125 C5.11863281 11.05306641 5.36226562 11.79363281 5.61328125 12.55664062 C7.10113223 17.1088479 8.5170394 21.68089524 9.9140625 26.26171875 C11.99401809 33.04761107 14.23248452 39.77484317 16.5 46.5 C19.13607597 54.31825945 21.69626352 62.14803991 24.08789062 70.04492188 C25.01364076 73.04419374 26.00739509 76.02218528 27 79 C55.05 79.33 83.1 79.66 112 80 C108.2445034 83.7554966 105.08733797 86.51731735 100.8125 89.5 C99.56210224 90.3796432 98.31212273 91.25988114 97.0625 92.140625 C96.4025 92.60404297 95.7425 93.06746094 95.0625 93.54492188 C91.45990369 96.08652628 87.8861612 98.66794017 84.3125 101.25 C83.56323242 101.79100342 82.81396484 102.33200684 82.04199219 102.8894043 C76.35946306 106.9997991 70.70613294 111.14890728 65.0625 115.3125 C64.2669873 115.8988623 63.47147461 116.48522461 62.65185547 117.08935547 C59.23911124 119.60585231 55.82911731 122.12569897 52.4296875 124.66015625 C51.44226563 125.39105469 50.45484375 126.12195313 49.4375 126.875 C48.61121094 127.49117188 47.78492188 128.10734375 46.93359375 128.7421875 C45 130 45 130 43 130 C43.4021875 130.97477295 43.4021875 130.97477295 43.8125 131.96923828 C48.50375371 143.72630709 52.18461394 155.81283423 56 167.875 C57.05261947 171.19215548 58.10637044 174.50894815 59.16088867 177.82550049 C59.83904658 179.95863368 60.51630976 182.09205154 61.19262695 184.22576904 C63.4353525 191.28530207 65.76183833 198.31036987 68.1875 205.30908203 C69 208 69 208 69 211 C65.31172955 209.33404209 62.13479266 207.0543707 58.875 204.6875 C58.26809326 204.25018555 57.66118652 203.81287109 57.03588867 203.36230469 C55.71589484 202.41059229 54.39683919 201.45757762 53.07861328 200.50341797 C50.9706226 198.97875193 48.85879582 197.45953566 46.74609375 195.94140625 C38.84020958 190.25454804 30.96746136 184.52400827 23.125 178.75 C22.33061523 178.16694092 21.53623047 177.58388184 20.71777344 176.9831543 C17.20032222 174.39426614 13.70493055 171.78910431 10.27734375 169.08203125 C9.7261084 168.65116211 9.17487305 168.22029297 8.60693359 167.77636719 C7.1790681 166.65411818 5.76281245 165.5171398 4.34765625 164.37890625 C2.17147189 162.77548914 2.17147189 162.77548914 0.08203125 163.26074219 C-2.16659517 164.05915223 -3.73996931 165.03693755 -5.66015625 166.44921875 C-6.36140625 166.96033203 -7.06265625 167.47144531 -7.78515625 167.99804688 C-8.91244141 168.83432617 -8.91244141 168.83432617 -10.0625 169.6875 C-11.24972656 170.55665039 -11.24972656 170.55665039 -12.4609375 171.44335938 C-14.97877987 173.28911626 -17.48987711 175.14376242 -20 177 C-21.59224431 178.17345341 -23.18468861 179.3466355 -24.77734375 180.51953125 C-27.1435723 182.26284934 -29.50927729 184.00685323 -31.87329102 185.75317383 C-39.54618707 191.41779673 -47.27947463 196.99714354 -55.01855469 202.57080078 C-59.35615226 205.69947207 -63.67842467 208.84924794 -68 212 C-69 210 -69 210 -68.45849609 207.93139648 C-68.14992676 207.08649658 -67.84135742 206.24159668 -67.5234375 205.37109375 C-67.18505859 204.4275 -66.84667969 203.48390625 -66.49804688 202.51171875 C-65.94213867 200.98998047 -65.94213867 200.98998047 -65.375 199.4375 C-62.89657638 192.5030505 -60.48659315 185.59209369 -58.5 178.5 C-56.57658221 171.67249269 -54.30055458 164.99980943 -51.9375 158.3125 C-45.52027536 143.81389632 -45.52027536 143.81389632 -45 129 C-46.36313476 127.59577789 -46.36313476 127.59577789 -48.1484375 126.4765625 C-48.81415771 126.02031494 -49.47987793 125.56406738 -50.16577148 125.09399414 C-50.89481689 124.60922607 -51.6238623 124.12445801 -52.375 123.625 C-53.93754396 122.55534906 -55.49869161 121.48365617 -57.05859375 120.41015625 C-57.87312012 119.85215332 -58.68764648 119.29415039 -59.52685547 118.71923828 C-63.55847763 115.9166042 -67.49644796 112.99047631 -71.4375 110.0625 C-77.74006509 105.39376611 -84.07055865 100.76805759 -90.4375 96.1875 C-95.6882588 92.40400771 -100.93148062 88.61184774 -106.125 84.75 C-107.55199219 83.69039062 -107.55199219 83.69039062 -109.0078125 82.609375 C-109.66523437 82.07828125 -110.32265625 81.5471875 -111 81 C-111 80.67 -111 80.34 -111 80 C-82.95 80 -54.9 80 -26 80 C-25.01 76.37 -24.02 72.74 -23 69 C-22.30849166 66.71806086 -21.60112895 64.44080562 -20.87109375 62.17089844 C-20.48058838 60.9530365 -20.09008301 59.73517456 -19.68774414 58.48040771 C-19.27114891 57.19001413 -18.85439712 55.89967108 -18.4375 54.609375 C-18.00045181 53.25184865 -17.56352382 51.89428359 -17.12670898 50.53668213 C-16.21731682 47.71239316 -15.30607603 44.88870911 -14.39355469 42.06542969 C-13.22965918 38.46370288 -12.07109994 34.86028476 -10.91398621 31.25637436 C-10.01553985 28.46050826 -9.1139477 25.6656641 -8.2114563 22.87110138 C-7.78305627 21.54308647 -7.35568715 20.2147385 -6.92941284 18.88603973 C-4.8681496 12.46590751 -2.82655599 6.12799157 0 0 Z " fill="#027B3F" transform="translate(853,321)"/>
<path d="M0 0 C2 1 2 1 2.96614075 3.3283844 C3.30191635 4.36156296 3.63769196 5.39474152 3.98364258 6.45922852 C4.55983086 8.21354942 4.55983086 8.21354942 5.1476593 10.00331116 C5.5634642 11.29511797 5.97908315 12.58698465 6.39453125 13.87890625 C6.82746972 15.20698751 7.26104821 16.53486029 7.69523621 17.86253357 C8.84261484 21.3772994 9.98072568 24.89500216 11.11712646 28.41333008 C12.25511455 31.93047539 13.40252539 35.44454225 14.54882812 38.95898438 C18.11621191 49.9068027 21.66858603 60.86013568 25.13671875 71.83984375 C25.6949231 73.60702759 25.6949231 73.60702759 26.2644043 75.40991211 C27 78 27 78 27 80 C55.05 80 83.1 80 112 80 C106.37414966 85.62585034 106.37414966 85.62585034 102.98828125 88.09375 C102.2398999 88.64232666 101.49151855 89.19090332 100.72045898 89.75610352 C99.92583252 90.33158936 99.13120605 90.9070752 98.3125 91.5 C97.475979 92.11093506 96.63945801 92.72187012 95.77758789 93.35131836 C93.18881152 95.23943916 90.59520648 97.12072963 88 99 C87.22301758 99.56348145 86.44603516 100.12696289 85.64550781 100.70751953 C81.19707294 103.93201084 76.74128517 107.14617834 72.28222656 110.35595703 C67.55033105 113.76466311 62.82559969 117.18330477 58.09936523 120.59985352 C53.74279829 123.74724263 49.37616082 126.87990631 45 130 C47.82101419 144.36152677 53.03774585 158.22581811 57.70141602 172.06787109 C59.93041835 178.70265493 62.04795855 185.36093168 64.0871582 192.05639648 C65.45031223 196.4521034 66.95656911 200.79330457 68.50585938 205.12695312 C69.05934847 206.73325635 69.53688413 208.36534899 70 210 C69.67 210.66 69.34 211.32 69 212 C68.51869629 211.64397705 68.03739258 211.2879541 67.54150391 210.92114258 C58.72570967 204.40362528 49.89830868 197.90455941 41 191.5 C35.48971274 187.53356683 29.99942144 183.54204139 24.53564453 179.51171875 C22.90677203 178.31024439 21.27627601 177.11096749 19.64404297 175.9140625 C16.23580218 173.4115031 12.84586059 170.90020965 9.53515625 168.26953125 C8.57480469 167.52058594 7.61445313 166.77164063 6.625 166 C5.83351563 165.360625 5.04203125 164.72125 4.2265625 164.0625 C2.05345605 162.75294861 2.05345605 162.75294861 -0.28125 163.453125 C-4.09958591 165.62562647 -7.59434659 168.14106923 -11.125 170.75 C-12.3011084 171.60911987 -12.3011084 171.60911987 -13.50097656 172.4855957 C-16.00524324 174.31756769 -18.5033355 176.15768374 -21 178 C-21.81500977 178.60054199 -22.63001953 179.20108398 -23.46972656 179.81982422 C-26.70009505 182.20033348 -29.93001645 184.58143244 -33.15698242 186.96655273 C-38.43951408 190.86690292 -43.75864271 194.70984733 -49.11914062 198.50219727 C-51.93119148 200.4979676 -54.71309015 202.52534863 -57.45703125 204.61328125 C-58.01140869 205.03504639 -58.56578613 205.45681152 -59.13696289 205.89135742 C-60.65233616 207.05030719 -62.16229883 208.21632182 -63.671875 209.3828125 C-66 211 -66 211 -68 211 C-66.52097411 203.67827015 -64.39145395 196.70345303 -62.04296875 189.6171875 C-61.6581282 188.44471466 -61.27328766 187.27224182 -60.87678528 186.0642395 C-59.65104239 182.33315706 -58.41933981 178.60407337 -57.1875 174.875 C-56.37135751 172.3933565 -55.55559878 169.91158676 -54.74023438 167.4296875 C-52.82969508 161.61808994 -50.91305217 155.80853847 -48.99212646 150.00036621 C-48.10883179 147.32912661 -47.22733685 144.6573006 -46.34619141 141.98535156 C-45.89373569 140.61777864 -45.44111784 139.25025935 -44.98828125 137.8828125 C-44.61872314 136.76535645 -44.24916504 135.64790039 -43.8684082 134.49658203 C-43 132 -43 132 -42 130 C-42.589021 129.71801758 -43.17804199 129.43603516 -43.78491211 129.14550781 C-45.80371049 128.10150891 -47.58841867 126.98171394 -49.44140625 125.671875 C-50.09778076 125.20894043 -50.75415527 124.74600586 -51.43041992 124.26904297 C-52.13400635 123.76775879 -52.83759277 123.26647461 -53.5625 122.75 C-54.30411377 122.22422363 -55.04572754 121.69844727 -55.80981445 121.15673828 C-62.29864297 116.53821518 -68.71118932 111.81850271 -75.11254883 107.07983398 C-79.79581592 103.61499344 -84.50058426 100.18606319 -89.25 96.8125 C-94.31059958 93.2133699 -99.35402189 89.5917617 -104.375 85.9375 C-105.03661133 85.45966064 -105.69822266 84.98182129 -106.37988281 84.48950195 C-107.93847441 83.35131446 -109.47211268 82.17908391 -111 81 C-111 80.67 -111 80.34 -111 80 C-82.95 79.67 -54.9 79.34 -26 79 C-22.05495375 68.07204776 -22.05495375 68.07204776 -18.6875 57.0625 C-16.43010393 49.1057376 -13.71259426 41.33743976 -10.953125 33.54296875 C-8.63238725 26.94254352 -6.51213721 20.318088 -4.63476562 13.578125 C-3.33259008 8.93642178 -1.73631189 4.49252046 0 0 Z " fill="#027B3F" transform="translate(426,321)"/>
</svg>
