<?xml version="1.0" encoding="UTF-8"?>
<svg version="1.1" xmlns="http://www.w3.org/2000/svg" width="800" height="400">
<path d="M0 0 C264 0 528 0 800 0 C800 132 800 264 800 400 C536 400 272 400 0 400 C0 268 0 136 0 0 Z " fill="#CF202B" transform="translate(0,0)"/>
<path d="M0 0 C1.1212497 -0.00346153 2.2424994 -0.00692307 3.39772636 -0.01048949 C7.17592639 -0.01846552 10.9537472 -0.00494185 14.73192787 0.00837994 C17.45947927 0.0087421 20.1870195 0.00457361 22.91456759 0.00061244 C28.85549632 -0.0056092 34.79633493 -0.0006768 40.73725319 0.01152706 C49.57117938 0.02962338 58.40504869 0.03053529 67.23899004 0.0279011 C82.09865653 0.02395805 96.95828301 0.03398871 111.81793785 0.05195332 C126.53317271 0.06969777 141.24839092 0.08124982 155.9636364 0.08451176 C156.87821284 0.08471798 157.79278927 0.08492419 158.73508015 0.08513666 C163.37965602 0.08615165 168.02423191 0.0870558 172.66880782 0.08791729 C205.57565223 0.09422035 238.48247487 0.11443752 271.38930702 0.14282513 C303.36000897 0.17037336 335.33070496 0.19162668 367.3014164 0.20434856 C368.28670414 0.20474314 369.27199189 0.20513772 370.28713684 0.20554426 C380.18170302 0.20949978 390.07626926 0.21332723 399.97083553 0.21706083 C420.12762981 0.2246697 440.28442371 0.23313345 460.44121742 0.24211407 C461.36801637 0.24252594 462.29481532 0.24293781 463.24969909 0.24336216 C511.21195215 0.26475254 559.17419513 0.29883569 607.13643837 0.33581829 C607.81120764 0.3363385 608.4859769 0.33685872 609.18119372 0.33739469 C622.4388789 0.34763855 635.6965636 0.35844472 648.95424843 0.36914349 C648.95424843 26.76914349 648.95424843 53.16914349 648.95424843 80.36914349 C385.28424843 80.36914349 121.61424843 80.36914349 -150.04575157 80.36914349 C-145.83219421 76.15558613 -142.49831779 74.08203385 -136.94418907 72.13086224 C-134.66924541 71.2180762 -132.94428461 69.90257402 -131.04575157 68.36914349 C-130.38575157 68.36914349 -129.72575157 68.36914349 -129.04575157 68.36914349 C-129.04575157 67.70914349 -129.04575157 67.04914349 -129.04575157 66.36914349 C-127.99387657 65.81226849 -126.94200157 65.25539349 -125.85825157 64.68164349 C-123.15092211 63.15877066 -121.59279424 61.90565226 -119.35825157 59.61914349 C-117.04575157 57.36914349 -117.04575157 57.36914349 -113.04575157 57.36914349 C-113.04575157 56.70914349 -113.04575157 56.04914349 -113.04575157 55.36914349 C-111.72575157 55.36914349 -110.40575157 55.36914349 -109.04575157 55.36914349 C-109.04575157 54.70914349 -109.04575157 54.04914349 -109.04575157 53.36914349 C-108.09700157 53.08039349 -107.14825157 52.79164349 -106.17075157 52.49414349 C-102.99363579 51.60089239 -102.99363579 51.60089239 -101.04575157 49.36914349 C-99.3914177 48.67243576 -97.72285856 48.00909221 -96.04575157 47.36914349 C-85.1064356 42.31539414 -85.1064356 42.31539414 -75.01840782 35.81445599 C-73.04575157 34.36914349 -73.04575157 34.36914349 -69.35825157 32.86914349 C-68.26512657 32.37414349 -67.17200157 31.87914349 -66.04575157 31.36914349 C-65.55075157 29.88414349 -65.55075157 29.88414349 -65.04575157 28.36914349 C-63.06575157 28.03914349 -61.08575157 27.70914349 -59.04575157 27.36914349 C-59.04575157 26.70914349 -59.04575157 26.04914349 -59.04575157 25.36914349 C-55.74575157 24.37914349 -52.44575157 23.38914349 -49.04575157 22.36914349 C-49.04575157 21.70914349 -49.04575157 21.04914349 -49.04575157 20.36914349 C-47.72575157 20.36914349 -46.40575157 20.36914349 -45.04575157 20.36914349 C-44.55075157 18.88414349 -44.55075157 18.88414349 -44.04575157 17.36914349 C-42.26059532 16.34179974 -42.26059532 16.34179974 -39.98325157 15.43164349 C-39.17500938 15.09390911 -38.3667672 14.75617474 -37.53403282 14.40820599 C-36.71290001 14.06531536 -35.8917672 13.72242474 -35.04575157 13.36914349 C-33.57982127 12.69799468 -32.12078388 12.01148294 -30.67075157 11.30664349 C-30.0442672 11.00629192 -29.41778282 10.70594036 -28.77231407 10.39648724 C-26.97333441 9.42290972 -26.97333441 9.42290972 -25.52622032 7.84179974 C-23.14637416 5.47451213 -20.12636511 4.62227442 -17.04575157 3.36914349 C-15.78839748 2.59165761 -15.78839748 2.59165761 -14.50564229 1.79846495 C-9.62889598 -0.21617619 -5.22707758 -0.03949245 0 0 Z " fill="#283A86" transform="translate(151.04575157165527,319.63085651397705)"/>
<path d="M0 0 C263.34 0 526.68 0 798 0 C798 26.4 798 52.8 798 80 C767.9021006 80.04052457 767.9021006 80.04052457 756.22662354 80.05554199 C755.49983452 80.05647697 754.77304551 80.05741195 754.02423258 80.05837526 C705.90161091 80.12019086 657.77899053 80.17605169 609.65634155 80.2117157 C608.72729535 80.21240598 607.79824914 80.21309627 606.84105002 80.21380747 C586.65081903 80.22877169 566.46058743 80.24262265 546.2703549 80.25532665 C536.36920131 80.26156338 526.46804788 80.26804614 516.56689453 80.2746582 C515.58160594 80.275312 514.59631736 80.27596579 513.58117154 80.2766394 C481.63985145 80.29794962 449.69857556 80.33550877 417.75728226 80.3814861 C384.93596567 80.42864441 352.11467354 80.45942614 319.29332364 80.46957495 C314.65851468 80.47101574 310.0237058 80.47264393 305.38889694 80.47438622 C304.02058931 80.47489189 304.02058931 80.47489189 302.6246391 80.47540778 C287.93521509 80.48131847 273.24586667 80.50451444 258.5564735 80.53416017 C243.79195062 80.56358916 229.02750276 80.57484172 214.26295157 80.56750689 C205.48889568 80.56370136 196.71511419 80.57386587 187.9411078 80.60398772 C182.07982106 80.62273674 176.21871401 80.62331876 170.35741487 80.60915907 C167.01763954 80.60161007 163.67880451 80.6046965 160.33901627 80.62441591 C156.73820216 80.64444358 153.13873583 80.63369053 149.53794289 80.61523914 C148.50534503 80.62837421 147.47274718 80.64150928 146.40885848 80.65504238 C139.18952856 80.57128669 134.16440297 78.70031808 128 75 C127.0925 74.46375 126.185 73.9275 125.25 73.375 C124.5075 72.92125 123.765 72.4675 123 72 C121.96875 71.505 120.9375 71.01 119.875 70.5 C117 69 117 69 115.64453125 67.54296875 C113.54887286 65.57673344 111.49286833 64.82198937 108.8125 63.8125 C107.91144531 63.46832031 107.01039062 63.12414063 106.08203125 62.76953125 C105.05142578 62.38861328 105.05142578 62.38861328 104 62 C104 61.34 104 60.68 104 60 C103.28714844 59.74089844 102.57429688 59.48179688 101.83984375 59.21484375 C98.83085452 57.92764203 96.29267929 56.36325655 93.5625 54.5625 C89.7864447 52.11316683 86.08724668 49.87792415 82 48 C82 47.01 82 46.02 82 45 C80.48212891 44.86271484 80.48212891 44.86271484 78.93359375 44.72265625 C74.68380732 43.94191098 71.80742992 42.56091387 68.0625 40.4375 C66.34740234 39.47650391 66.34740234 39.47650391 64.59765625 38.49609375 C63.74042969 38.00238281 62.88320312 37.50867187 62 37 C62 36.34 62 35.68 62 35 C61.30519531 34.72414062 60.61039063 34.44828125 59.89453125 34.1640625 C56.81490906 32.92556397 53.75049088 31.65405114 50.6875 30.375 C49.61886719 29.92898437 48.55023438 29.48296875 47.44921875 29.0234375 C46.23685547 28.51683594 46.23685547 28.51683594 45 28 C45 27.34 45 26.68 45 26 C44.05125 25.814375 43.1025 25.62875 42.125 25.4375 C37.5799378 24.17039175 34.26942104 21.44967014 30.51171875 18.6875 C27.13242482 16.41711901 23.86999857 15.21833288 20 14 C20 13.34 20 12.68 20 12 C18.700625 11.9071875 18.700625 11.9071875 17.375 11.8125 C13.8643186 10.96733596 12.2803314 9.74450532 9.65625 7.34375 C6.73806316 4.97616445 3.39407488 3.58000037 0 2 C0 1.34 0 0.68 0 0 Z " fill="#283A85" transform="translate(2,0)"/>
<path d="M0 0 C217.47 0 434.94 0 659 0 C659 26.4 659 52.8 659 80 C609.65420803 80.21996604 560.30843865 80.42966636 510.96229553 80.55046082 C510.23099759 80.55225556 509.49969964 80.5540503 508.74624115 80.55589943 C492.85001357 80.5948147 476.95378064 80.630826 461.05753976 80.66384928 C453.26109629 80.68006349 445.46465426 80.69691885 437.66821289 80.71411133 C436.89240731 80.7158112 436.11660172 80.71751106 435.31728688 80.71926244 C410.20840454 80.77457865 385.0999046 80.87216407 359.99125356 80.99186387 C334.17103989 81.1147312 308.35103752 81.19456691 282.53053647 81.22089487 C278.87669116 81.22464043 275.22284657 81.2288737 271.56900215 81.23340416 C270.84993148 81.23428066 270.13086081 81.23515716 269.39000012 81.23606022 C257.85314575 81.25137357 246.31694812 81.31153366 234.78036071 81.38881644 C223.15874934 81.46569896 211.5379436 81.49345183 199.91607045 81.47551791 C193.62806632 81.4672223 187.34197598 81.47958818 181.05431557 81.54967117 C133.64246526 82.05212071 133.64246526 82.05212071 117.1832248 68.67331827 C113.29880148 65.6961276 108.97810519 63.45801853 104.6875 61.125 C96.8183189 56.63012801 88.97119166 52.09734357 81.125 47.5625 C72.94034445 42.83225495 64.7366514 38.13910755 56.5 33.5 C44.97860677 27.00982223 33.52513736 20.40463235 22.08105469 13.77929688 C19.10240955 12.05914111 16.11864626 10.34826607 13.1328125 8.640625 C12.23981445 8.12838379 11.34681641 7.61614258 10.42675781 7.08837891 C8.76369526 6.13464786 7.09905379 5.18366314 5.43261719 4.23583984 C3.60530483 3.18531854 1.79969413 2.09716293 0 1 C0 0.67 0 0.34 0 0 Z " fill="#FEFEFE" transform="translate(141,80)"/>
<path d="M0 0 C0.88425807 -0.00230769 1.76851613 -0.00461538 2.6795699 -0.006993 C5.66357163 -0.01231654 8.64736059 -0.00328936 11.63135147 0.00558662 C13.7838252 0.00471504 15.93629872 0.00296493 18.0887711 0.00040829 C24.01998063 -0.00407849 29.95111836 0.0039567 35.88231874 0.01396441 C42.27221953 0.02257749 48.66211606 0.01968028 55.05202103 0.01815987 C66.12840886 0.01710965 77.20477281 0.02333086 88.28115463 0.03463554 C99.89993526 0.04646346 111.51870653 0.0541662 123.13749313 0.05634117 C123.85950485 0.05647865 124.58151656 0.05661613 125.32540742 0.05675778 C128.99203497 0.05743443 132.65866254 0.0580372 136.32529011 0.05861153 C162.30624355 0.06281404 188.28718473 0.07629348 214.26813126 0.09521675 C239.51064361 0.11358098 264.75315262 0.12775048 289.99567032 0.13623238 C291.16248586 0.13662695 291.16248586 0.13662695 292.35287343 0.1370295 C300.16452628 0.13966651 307.97617916 0.14221814 315.78783207 0.14470722 C331.70153305 0.14977986 347.61523382 0.15542236 363.52893448 0.16140938 C364.26064505 0.16168396 364.99235562 0.16195854 365.74623923 0.16224144 C414.6212178 0.18064748 463.49618817 0.21279457 512.3711586 0.24609566 C512.3711586 26.64609566 512.3711586 53.04609566 512.3711586 80.24609566 C294.9011586 80.24609566 77.4311586 80.24609566 -146.6288414 80.24609566 C-143.77937781 77.39663206 -141.52658835 75.93095772 -138.0272789 74.02343941 C-136.90627792 73.4078315 -135.78527695 72.79222359 -134.63030624 72.15796089 C-134.03868698 71.8359269 -133.44706772 71.5138929 -132.8375206 71.1821003 C-129.7409511 69.49590622 -126.65379606 67.7926556 -123.5663414 66.08984566 C-122.95704788 65.75420097 -122.34775436 65.41855629 -121.71999741 65.07274055 C-117.09940391 62.52149237 -112.53438868 59.8907758 -108.0038414 57.18359566 C-101.32457036 53.19878441 -94.55284215 49.39761962 -87.7538414 45.62109566 C-78.72458823 40.60208582 -69.80738865 35.42276938 -60.9413414 30.12109566 C-51.74696692 24.62319732 -42.46752829 19.35305449 -33.03094101 14.28320503 C-26.90893011 10.98325126 -20.95915775 7.49887039 -15.0897789 3.76953316 C-13.87161484 3.01543159 -13.87161484 3.01543159 -12.6288414 2.24609566 C-12.09605442 1.88975048 -11.56326744 1.53340531 -11.01433539 1.16626179 C-7.40800964 -0.22482066 -3.81095553 -0.02425967 0 0 Z " fill="#FEFEFE" transform="translate(287.6288414001465,239.75390434265137)"/>
<path d="M0 0 C170.28 0 340.56 0 516 0 C516 26.4 516 52.8 516 80 C344.4 80 172.8 80 -4 80 C-4 79.34 -4 78.68 -4 78 C-2.2675 77.4121875 -2.2675 77.4121875 -0.5 76.8125 C3.4138352 75.35780019 6.7074498 73.40878294 10.1875 71.125 C12 70 12 70 14.6875 68.9375 C17.1395701 68.08143319 17.1395701 68.08143319 19.2734375 66.09375 C22.11051372 63.9151356 24.59812322 62.80455906 27.9375 61.5625 C32.84779491 59.61770915 36.14543593 57.55025638 40 54 C40.66 54 41.32 54 42 54 C42 53.34 42 52.68 42 52 C43.32 52 44.64 52 46 52 C46.33 51.01 46.66 50.02 47 49 C49.546875 47.68359375 49.546875 47.68359375 52.75 46.4375 C53.79671875 46.02371094 54.8434375 45.60992187 55.921875 45.18359375 C56.93765625 44.79300781 57.9534375 44.40242188 59 44 C60.66744253 43.33527629 62.33439906 42.66932482 64 42 C64 40.68 64 39.36 64 38 C61.36 37.34 58.72 36.68 56 36 C56 35.01 56 34.02 56 33 C54.906875 32.690625 53.81375 32.38125 52.6875 32.0625 C50.44592006 31.41662103 48.2130649 30.7376883 46 30 C46 29.34 46 28.68 46 28 C44.92298828 27.60941406 44.92298828 27.60941406 43.82421875 27.2109375 C40.88079751 25.94888967 38.46248818 24.41775419 35.8125 22.625 C31.38694295 19.74629757 27.07763472 17.6653928 22.14453125 15.82421875 C18.91895279 14.58451556 16.20272311 12.88558716 13.4296875 10.84375 C9.13303053 7.68387671 4.82536854 5.28570089 0 3 C0 2.01 0 1.02 0 0 Z " fill="#283985" transform="translate(284,160)"/>
<path d="M0 0 C0.66 0 1.32 0 2 0 C3.35263679 3.76728669 4.70345175 7.53522159 6.05273438 11.30371094 C6.73215815 13.20019776 7.41293588 15.09619935 8.09375 16.9921875 C10.20611618 22.89438711 12.30073666 28.80238688 14.328125 34.734375 C14.65200195 35.68022461 14.97587891 36.62607422 15.30957031 37.60058594 C16 40 16 40 16 43 C16.94915283 42.99214478 16.94915283 42.99214478 17.91748047 42.98413086 C28.71997129 42.90695626 39.51998456 42.84316544 50.3125 43.375 C51.05161621 43.40585693 51.79073242 43.43671387 52.55224609 43.46850586 C56.17862285 43.675126 57.90604518 43.93736345 61 46 C49.88487329 54.9740982 38.68294719 63.76883266 27 72 C27.42026573 80.21619508 30.58728674 87.52860004 33.5 95.125 C34.27158889 97.14794469 35.04045951 99.17178388 35.80285645 101.19821167 C36.49321476 103.03179155 37.1926357 104.8619518 37.89257812 106.69189453 C38.93640636 109.81003222 39.56256759 112.7470598 40 116 C30.56565176 111.47668235 21.94947798 104.99927924 13.28271484 99.17626953 C11.82718018 98.20031691 10.36759383 97.23036977 8.90332031 96.26757812 C7.33362581 95.22218897 5.79828933 94.12540255 4.2734375 93.015625 C2.0444929 91.75122242 2.0444929 91.75122242 -0.3203125 92.5 C-3.93903211 94.52563896 -7.41431451 96.71618327 -10.875 99 C-11.61443848 99.48259277 -12.35387695 99.96518555 -13.11572266 100.46240234 C-16.87495346 102.92180958 -20.61569574 105.40767867 -24.34375 107.9140625 C-25.36299561 108.59855469 -25.36299561 108.59855469 -26.40283203 109.296875 C-27.69277109 110.16556385 -28.98031559 111.03782179 -30.26513672 111.9140625 C-32.83637428 113.65059395 -35.03909033 115.01303011 -38 116 C-36.07512837 108.46912203 -33.73450759 101.21067339 -31 93.9375 C-28.41014724 87.01986698 -26.03153823 80.1036505 -24 73 C-32.09270659 66.57641415 -40.23940137 60.24949276 -48.58007812 54.14941406 C-52.37980826 51.3391568 -55.74842766 48.43256197 -59 45 C-43.94967477 43.24412872 -29.1472912 42.74289753 -14 43 C-13.7525 41.72125 -13.505 40.4425 -13.25 39.125 C-12.28250285 34.76106077 -10.80589758 30.82062473 -9.08789062 26.70410156 C-7.06662345 21.6799644 -5.43749667 16.51873986 -3.75 11.375 C-3.38648438 10.27542969 -3.02296875 9.17585937 -2.6484375 8.04296875 C-1.76284378 5.36288248 -0.88008793 2.68189823 0 0 Z " fill="#FDFBFA" transform="translate(115,136)"/>
<path d="M0 0 C170.61 0 341.22 0 517 0 C517 26.4 517 52.8 517 80 C299.53 80 82.06 80 -142 80 C-139.25476843 77.25476843 -137.08113396 75.74960321 -133.74609375 73.86328125 C-132.21758789 72.99799805 -132.21758789 72.99799805 -130.65820312 72.11523438 C-129.59537109 71.52033203 -128.53253906 70.92542969 -127.4375 70.3125 C-125.83745117 69.40274414 -125.83745117 69.40274414 -124.20507812 68.47460938 C-116.25748735 64 -116.25748735 64 -114 64 C-114.33 65.32 -114.66 66.64 -115 68 C-115.66 68 -116.32 68 -117 68 C-117 68.66 -117 69.32 -117 70 C-119.97 70.99 -119.97 70.99 -123 72 C-123 72.66 -123 73.32 -123 74 C-123.66 74 -124.32 74 -125 74 C-125.33 75.32 -125.66 76.64 -126 78 C85.86 78.33 297.72 78.66 516 79 C516 53.26 516 27.52 516 1 C345.72 1 175.44 1 0 1 C0 0.67 0 0.34 0 0 Z " fill="#ECF1FB" transform="translate(283,240)"/>
<path d="M0 0 C1.12355739 -0.00461538 2.24711477 -0.00923075 3.40471935 -0.01398599 C7.17883132 -0.02459425 10.95226407 -0.00661165 14.72634125 0.01117325 C17.45562248 0.01165648 20.18488393 0.00609638 22.9141593 0.00081658 C28.85268873 -0.00746979 34.79105771 -0.00091811 40.72956848 0.01536942 C49.55986677 0.03952091 58.39006401 0.04071159 67.22038931 0.03720146 C82.07472428 0.03194688 96.92898806 0.04530758 111.78330231 0.06927109 C126.49130353 0.09293775 141.1992751 0.10833458 155.90729523 0.11268234 C157.27895366 0.11309478 157.27895366 0.11309478 158.67832237 0.11351555 C163.32228032 0.11486888 167.96623829 0.11607442 172.61019629 0.11722305 C205.5048478 0.12562509 238.39946058 0.15257562 271.29409027 0.1904335 C303.25111943 0.22716987 335.20813798 0.25550499 367.16518402 0.27246475 C368.15020871 0.27299086 369.13523341 0.27351696 370.15010733 0.27405901 C380.04211424 0.27933308 389.93412124 0.28443634 399.82612831 0.28941445 C419.97735545 0.29955935 440.12858191 0.31084436 460.27980804 0.32281876 C461.20633241 0.32336792 462.13285678 0.32391708 463.08745765 0.32448288 C524.96103881 0.36128663 586.83459845 0.42466756 648.70815277 0.49219131 C648.70815277 0.82219131 648.70815277 1.15219131 648.70815277 1.49219131 C431.23815277 1.49219131 213.76815277 1.49219131 -10.29184723 1.49219131 C-10.62184723 3.14219131 -10.95184723 4.79219131 -11.29184723 6.49219131 C-13.04184723 7.17969131 -13.04184723 7.17969131 -15.29184723 7.49219131 C-17.54184723 6.05469131 -17.54184723 6.05469131 -19.29184723 4.49219131 C-12.66814314 0.53268239 -7.63643214 -0.07731743 0 0 Z " fill="#37427D" transform="translate(151.2918472290039,319.50780868530273)"/>
<path d="M0 0 C0.66 0.33 1.32 0.66 2 1 C-7.2972973 9 -7.2972973 9 -12 9 C-12 9.99 -12 10.98 -12 12 C-12.66 12 -13.32 12 -14 12 C-13.67 13.32 -13.34 14.64 -13 16 C152.99 16.33 318.98 16.66 490 17 C490 17.33 490 17.66 490 18 C318.4 18 146.8 18 -30 18 C-30 17.34 -30 16.68 -30 16 C-28.845 15.608125 -27.69 15.21625 -26.5 14.8125 C-22.5861648 13.35780019 -19.2925502 11.40878294 -15.8125 9.125 C-14 8 -14 8 -11.3125 6.9375 C-8.41683859 5.76358321 -6.40660015 3.97464628 -4 2 C-1.8125 0.6875 -1.8125 0.6875 0 0 Z " fill="#36437C" transform="translate(310,222)"/>
<path d="M0 0 C170.28 0 340.56 0 516 0 C516 0.33 516 0.66 516 1 C264.54 1.495 264.54 1.495 8 2 C8 2.99 8 3.98 8 5 C8.99 5.33 9.98 5.66 11 6 C11 6.66 11 7.32 11 8 C6.97488434 6.78310457 3.40742883 5.50546238 0 3 C0 2.01 0 1.02 0 0 Z " fill="#36437C" transform="translate(284,160)"/>
<path d="M0 0 C2.91691525 -0.05401695 5.83282724 -0.09368066 8.75 -0.125 C9.575 -0.14175781 10.4 -0.15851562 11.25 -0.17578125 C12.04921875 -0.18222656 12.8484375 -0.18867187 13.671875 -0.1953125 C14.4050293 -0.20578613 15.13818359 -0.21625977 15.89355469 -0.22705078 C18.29896076 0.03222456 19.91251494 0.80774075 22 2 C22 2.99 22 3.98 22 5 C21.34 5 20.68 5 20 5 C20 5.99 20 6.98 20 8 C21.32 8 22.64 8 24 8 C24 7.34 24 6.68 24 6 C25.32 6 26.64 6 28 6 C27.67 7.093125 27.34 8.18625 27 9.3125 C25.86913351 12.84578884 25.86913351 12.84578884 26 16 C24.02 15.34 22.04 14.68 20 14 C20 13.34 20 12.68 20 12 C18.700625 11.9071875 18.700625 11.9071875 17.375 11.8125 C13.8643186 10.96733596 12.2803314 9.74450532 9.65625 7.34375 C6.73806316 4.97616445 3.39407488 3.58000037 0 2 C0 1.34 0 0.68 0 0 Z " fill="#343683" transform="translate(2,0)"/>
<path d="M0 0 C-1.10408203 0.68835938 -1.10408203 0.68835938 -2.23046875 1.390625 C-3.20628906 2.00421875 -4.18210937 2.6178125 -5.1875 3.25 C-6.15042969 3.85328125 -7.11335938 4.4565625 -8.10546875 5.078125 C-11.03077446 6.94910791 -11.03077446 6.94910791 -13.65625 9.1875 C-16.44322881 11.34276361 -18.53384864 11.67756732 -22 12 C-22 12.66 -22 13.32 -22 14 C-23.70758265 14.93886662 -25.41610444 15.87602523 -27.125 16.8125 C-28.12660156 17.36164063 -29.12820312 17.91078125 -30.16015625 18.4765625 C-32.26401774 19.60518145 -34.40485285 20.66545661 -36.5625 21.6875 C-39.27315821 22.90098993 -39.27315821 22.90098993 -41 26 C-43.625 26.1875 -43.625 26.1875 -46 26 C-46 26.66 -46 27.32 -46 28 C-47.24716797 28.38091797 -47.24716797 28.38091797 -48.51953125 28.76953125 C-49.60621094 29.11371094 -50.69289063 29.45789063 -51.8125 29.8125 C-52.89144531 30.14894531 -53.97039063 30.48539062 -55.08203125 30.83203125 C-57.88355475 31.95339072 -59.02531094 32.83265835 -61 35 C-63.6875 35.6875 -63.6875 35.6875 -66 36 C-66 36.99 -66 37.98 -66 39 C-69.33333333 40.33333333 -72.66666667 41.66666667 -76 43 C-76 42.34 -76 41.68 -76 41 C-74.948125 40.443125 -73.89625 39.88625 -72.8125 39.3125 C-70.10517054 37.78962718 -68.54704267 36.53650878 -66.3125 34.25 C-64 32 -64 32 -60 32 C-60 31.34 -60 30.68 -60 30 C-58.68 30 -57.36 30 -56 30 C-56 29.34 -56 28.68 -56 28 C-55.05125 27.71125 -54.1025 27.4225 -53.125 27.125 C-49.94788422 26.23174891 -49.94788422 26.23174891 -48 24 C-46.34566612 23.30329228 -44.67710699 22.63994872 -43 22 C-32.06068402 16.94625065 -32.06068402 16.94625065 -21.97265625 10.4453125 C-20 9 -20 9 -16.3125 7.5 C-15.219375 7.005 -14.12625 6.51 -13 6 C-12.67 5.01 -12.34 4.02 -12 3 C-9.03 2.505 -9.03 2.505 -6 2 C-6 1.34 -6 0.68 -6 0 C-2.25 -1.125 -2.25 -1.125 0 0 Z " fill="#582E64" transform="translate(98,345)"/>
<path d="M0 0 C0.89203125 0.20367187 1.7840625 0.40734375 2.703125 0.6171875 C3.37859375 0.78476563 4.0540625 0.95234375 4.75 1.125 C4.75 1.455 4.75 1.785 4.75 2.125 C3.1 2.455 1.45 2.785 -0.25 3.125 C0.58402344 3.76566406 1.41804688 4.40632812 2.27734375 5.06640625 C4.60689165 6.85623162 6.93471158 8.6482792 9.26171875 10.44140625 C11.36334625 12.06046752 13.46980445 13.67205139 15.58203125 15.27734375 C16.37996094 15.88707031 17.17789063 16.49679688 18 17.125 C18.70640625 17.66125 19.4128125 18.1975 20.140625 18.75 C21.75 20.125 21.75 20.125 22.75 22.125 C21.43 21.795 20.11 21.465 18.75 21.125 C18.75 20.465 18.75 19.805 18.75 19.125 C18.193125 19.0425 17.63625 18.96 17.0625 18.875 C14.06457371 17.90269958 12.19829371 16.08363497 9.75 14.125 C7.81381575 13.45343384 7.81381575 13.45343384 5.75 13.125 C3.74568551 12.47141919 1.7459722 11.80363055 -0.25 11.125 C-1.36375 10.75375 -2.4775 10.3825 -3.625 10 C-4.924375 9.566875 -4.924375 9.566875 -6.25 9.125 C-6.25 8.465 -6.25 7.805 -6.25 7.125 C-5.26 6.795 -4.27 6.465 -3.25 6.125 C-2.92 5.135 -2.59 4.145 -2.25 3.125 C-4.56 3.455 -6.87 3.785 -9.25 4.125 C-9.25 3.135 -9.25 2.145 -9.25 1.125 C-5.82794357 -1.03377391 -3.8855015 -0.92025036 0 0 Z " fill="#C21D28" transform="translate(57.25,178.875)"/>
<path d="M0 0 C-0.33 1.32 -0.66 2.64 -1 4 C-1.66 4 -2.32 4 -3 4 C-3 4.66 -3 5.32 -3 6 C-4.98 6.66 -6.96 7.32 -9 8 C-9 8.66 -9 9.32 -9 10 C-9.66 10 -10.32 10 -11 10 C-11.66 11.65 -12.32 13.3 -13 15 C-17.95 15.33 -22.9 15.66 -28 16 C-25.25476843 13.25476843 -23.08113396 11.74960321 -19.74609375 9.86328125 C-18.72708984 9.28642578 -17.70808594 8.70957031 -16.65820312 8.11523438 C-15.59537109 7.52033203 -14.53253906 6.92542969 -13.4375 6.3125 C-12.37080078 5.70599609 -11.30410156 5.09949219 -10.20507812 4.47460938 C-2.25748735 0 -2.25748735 0 0 0 Z " fill="#FDE7E8" transform="translate(169,304)"/>
<path d="M0 0 C0.66 0.33 1.32 0.66 2 1 C-7.2972973 9 -7.2972973 9 -12 9 C-12 9.99 -12 10.98 -12 12 C-12.66 12 -13.32 12 -14 12 C-13.67 13.32 -13.34 14.64 -13 16 C-18.80766296 17.5056904 -23.9981863 18.21824777 -30 18 C-30 17.34 -30 16.68 -30 16 C-28.845 15.608125 -27.69 15.21625 -26.5 14.8125 C-22.5861648 13.35780019 -19.2925502 11.40878294 -15.8125 9.125 C-14 8 -14 8 -11.3125 6.9375 C-8.41683859 5.76358321 -6.40660015 3.97464628 -4 2 C-1.8125 0.6875 -1.8125 0.6875 0 0 Z " fill="#32377A" transform="translate(310,222)"/>
<path d="M0 0 C0.79019531 0.47953125 1.58039063 0.9590625 2.39453125 1.453125 C3.27753906 1.95070312 4.16054687 2.44828125 5.0703125 2.9609375 C5.94042969 3.49460938 6.81054688 4.02828125 7.70703125 4.578125 C8.59003906 5.11695313 9.47304687 5.65578125 10.3828125 6.2109375 C11.04667969 6.62085938 11.71054688 7.03078125 12.39453125 7.453125 C11.40453125 7.783125 10.41453125 8.113125 9.39453125 8.453125 C7.23828125 7.2734375 7.23828125 7.2734375 4.89453125 5.578125 C2.30295517 3.72082881 0.44003411 2.46829262 -2.60546875 1.453125 C-2.27546875 3.103125 -1.94546875 4.753125 -1.60546875 6.453125 C-3.35546875 7.578125 -3.35546875 7.578125 -5.60546875 8.453125 C-7.85546875 7.578125 -7.85546875 7.578125 -9.60546875 6.453125 C-10.59546875 7.938125 -10.59546875 7.938125 -11.60546875 9.453125 C-10.94546875 9.783125 -10.28546875 10.113125 -9.60546875 10.453125 C-10.92546875 10.453125 -12.24546875 10.453125 -13.60546875 10.453125 C-13.60546875 11.113125 -13.60546875 11.773125 -13.60546875 12.453125 C-16.24546875 12.453125 -18.88546875 12.453125 -21.60546875 12.453125 C-17.73830338 9.27443226 -13.75855895 6.36460005 -9.60546875 3.578125 C-9.0021875 3.15015625 -8.39890625 2.7221875 -7.77734375 2.28125 C-3.30514592 -0.69373378 -3.30514592 -0.69373378 0 0 Z " fill="#BB252F" transform="translate(117.60546875,227.546875)"/>
<path d="M0 0 C0.33 1.32 0.66 2.64 1 4 C-0.65 4.66 -2.3 5.32 -4 6 C-3.01 6.66 -2.02 7.32 -1 8 C-0.8125 11.125 -0.8125 11.125 -1 14 C-2.093125 13.835 -3.18625 13.67 -4.3125 13.5 C-7.87525873 12.93281816 -7.87525873 12.93281816 -11 13 C-12.32 12.01 -13.64 11.02 -15 10 C-10.05 6.7 -5.1 3.4 0 0 Z " fill="#C4242D" transform="translate(95,240)"/>
<path d="M0 0 C2.12508244 3.18762365 2.5020163 5.26512223 3 9 C3.63276855 8.99476318 4.26553711 8.98952637 4.91748047 8.98413086 C18.32041729 8.88837828 31.62823046 9.05452135 45 10 C45 10.33 45 10.66 45 11 C40.94346228 11.16806963 36.88670199 11.32857949 32.82958984 11.48217773 C31.45027681 11.53545245 30.07104107 11.59076982 28.69189453 11.64819336 C26.70627168 11.7305101 24.72032137 11.80480377 22.734375 11.87890625 C20.94338379 11.94960327 20.94338379 11.94960327 19.11621094 12.02172852 C16.46008368 12.00320804 14.52991905 11.64739506 12 11 C10.327767 11.65257873 8.66072849 12.31867549 7 13 C6.01 12.67 5.02 12.34 4 12 C4 11.34 4 10.68 4 10 C3.01 9.67 2.02 9.34 1 9 C0.67 6.03 0.34 3.06 0 0 Z " fill="#F9D3D3" transform="translate(128,170)"/>
<path d="M0 0 C-0.67466309 0.39268066 -1.34932617 0.78536133 -2.04443359 1.18994141 C-5.15501957 3.00094638 -8.26501253 4.81296744 -11.375 6.625 C-12.43589844 7.24246094 -13.49679688 7.85992187 -14.58984375 8.49609375 C-15.64042969 9.10839844 -16.69101563 9.72070312 -17.7734375 10.3515625 C-18.81725586 10.95774414 -19.86107422 11.56392578 -20.93652344 12.18847656 C-22.94579158 13.37661568 -24.93956751 14.59143965 -26.91503906 15.83496094 C-28.24486816 16.67075684 -28.24486816 16.67075684 -29.6015625 17.5234375 C-30.38096191 18.02536621 -31.16036133 18.52729492 -31.96337891 19.04443359 C-34 20 -34 20 -37 19 C-36.505 17.515 -36.505 17.515 -36 16 C-32.04 15.505 -32.04 15.505 -28 15 C-28 14.34 -28 13.68 -28 13 C-20.71428571 8.57142857 -20.71428571 8.57142857 -16 8 C-16 7.34 -16 6.68 -16 6 C-11.64223013 1.9774432 -5.9637606 -1.9879202 0 0 Z " fill="#BA3742" transform="translate(191,291)"/>
<path d="M0 0 C0.66 0.33 1.32 0.66 2 1 C0.6875 2.5 0.6875 2.5 -1 4 C-1.99 4 -2.98 4 -4 4 C-4 4.99 -4 5.98 -4 7 C-5.45706726 7.50367757 -6.91570096 8.00282556 -8.375 8.5 C-9.18710938 8.7784375 -9.99921875 9.056875 -10.8359375 9.34375 C-13 10 -13 10 -15 10 C-15 10.66 -15 11.32 -15 12 C-20.34497817 17.93886463 -20.34497817 17.93886463 -24 19 C-26.25 18.125 -26.25 18.125 -28 17 C-22.80518735 12.68028863 -17.1785718 9.50184864 -11.3125 6.1875 C-9.72598633 5.27194336 -9.72598633 5.27194336 -8.10742188 4.33789062 C-6.59438477 3.4803418 -6.59438477 3.4803418 -5.05078125 2.60546875 C-4.12950439 2.08106201 -3.20822754 1.55665527 -2.2590332 1.01635742 C-1.14081177 0.5132605 -1.14081177 0.5132605 0 0 Z " fill="#FCEAE5" transform="translate(216,276)"/>
<path d="M0 0 C0.5775 0.226875 1.155 0.45375 1.75 0.6875 C1.75 1.6775 1.75 2.6675 1.75 3.6875 C-0.56 4.0175 -2.87 4.3475 -5.25 4.6875 C-5.58 5.6775 -5.91 6.6675 -6.25 7.6875 C-10.66474799 11.55040449 -13.86733039 12.08801939 -19.4921875 11.828125 C-20.07226562 11.78171875 -20.65234375 11.7353125 -21.25 11.6875 C-17.15491818 7.55800573 -13.61861067 5.36027557 -8.140625 3.453125 C-6.07801159 2.71789741 -6.07801159 2.71789741 -4 0.9375 C-2.25 -0.3125 -2.25 -0.3125 0 0 Z " fill="#2B3691" transform="translate(22.25,388.3125)"/>
<path d="M0 0 C0.66 0 1.32 0 2 0 C2 1.98 2 3.96 2 6 C3.83700789 6.77242269 3.83700789 6.77242269 6 7 C6.63421875 6.30390625 6.63421875 6.30390625 7.28125 5.59375 C9.61687713 3.42798666 11.56876249 3.28948338 14.6875 2.8125 C15.68136719 2.65394531 16.67523437 2.49539063 17.69921875 2.33203125 C18.45847656 2.22246094 19.21773437 2.11289062 20 2 C16.94427301 5.72001547 13.65524431 7.17902059 9.328125 8.984375 C6.05615877 10.41174282 3.06473077 12.17420294 0 14 C0 9.38 0 4.76 0 0 Z " fill="#D41E2E" transform="translate(0,386)"/>
<path d="M0 0 C0.556875 0.226875 1.11375 0.45375 1.6875 0.6875 C0.3125 2.1875 0.3125 2.1875 -1.3125 3.6875 C-1.9725 3.6875 -2.6325 3.6875 -3.3125 3.6875 C-3.3125 4.3475 -3.3125 5.0075 -3.3125 5.6875 C-4.385 6.05875 -5.4575 6.43 -6.5625 6.8125 C-11.40691351 8.60864619 -15.91462517 10.97721732 -20.48046875 13.3828125 C-23.13902673 14.60758266 -25.43076105 15.25550257 -28.3125 15.6875 C-26.15585398 13.34923279 -24.04750276 11.82917539 -21.2578125 10.3125 C-20.47792969 9.88453125 -19.69804687 9.4565625 -18.89453125 9.015625 C-18.08371094 8.57734375 -17.27289063 8.1390625 -16.4375 7.6875 C-14.83553657 6.81323424 -13.23396336 5.93825302 -11.6328125 5.0625 C-10.50540649 4.45015503 -10.50540649 4.45015503 -9.35522461 3.82543945 C-7.66962147 2.88644146 -6.02207335 1.87947583 -4.38671875 0.85546875 C-2.3125 -0.3125 -2.3125 -0.3125 0 0 Z " fill="#FDE8E7" transform="translate(281.3125,240.3125)"/>
<path d="M0 0 C2 3 2 3 2 5 C2.78375 5.28875 3.5675 5.5775 4.375 5.875 C7 7 7 7 9 9 C8.34 9.66 7.68 10.32 7 11 C7 10.34 7 9.68 7 9 C6.236875 8.855625 5.47375 8.71125 4.6875 8.5625 C2 8 2 8 -1 7 C-2.68076231 7.63028587 -4.34795544 8.29788106 -6 9 C-6.99 9 -7.98 9 -9 9 C-7.82596494 5.65851561 -6.84565166 3.18896282 -4 1 C-1.8125 0.3125 -1.8125 0.3125 0 0 Z " fill="#2C358C" transform="translate(131,325)"/>
<path d="M0 0 C14.9324524 3.56434668 14.9324524 3.56434668 19.5625 8.75 C21.8459365 10.73559696 24.10629774 10.19291348 27 10 C26.01 10.495 26.01 10.495 25 11 C25.33 12.32 25.66 13.64 26 15 C22.444218 13.65788025 19.20894833 12.07755303 15.91796875 10.1796875 C14.98662109 9.64472656 14.05527344 9.10976562 13.09570312 8.55859375 C12.13599609 8.00300781 11.17628906 7.44742188 10.1875 6.875 C9.20845703 6.31167969 8.22941406 5.74835938 7.22070312 5.16796875 C4.81210445 3.78155585 2.40528605 2.39214945 0 1 C0 0.67 0 0.34 0 0 Z " fill="#FCE4E4" transform="translate(141,80)"/>
<path d="M0 0 C0.66 0.33 1.32 0.66 2 1 C-3.8138492 5.14016534 -9.76961248 8.51636155 -16.203125 11.60546875 C-19.03558902 12.96214 -19.03558902 12.96214 -21.71484375 14.6953125 C-24 16 -24 16 -26.3125 15.6875 C-26.869375 15.460625 -27.42625 15.23375 -28 15 C-26 12 -26 12 -24.0546875 11.48828125 C-23.33539063 11.43027344 -22.61609375 11.37226563 -21.875 11.3125 C-20.59625 11.209375 -19.3175 11.10625 -18 11 C-18 10.34 -18 9.68 -18 9 C-16.68 9 -15.36 9 -14 9 C-14 8.34 -14 7.68 -14 7 C-13.195625 6.87625 -12.39125 6.7525 -11.5625 6.625 C-10.716875 6.41875 -9.87125 6.2125 -9 6 C-8.67 5.34 -8.34 4.68 -8 4 C-9.32 3.67 -10.64 3.34 -12 3 C-10 2 -10 2 -7.125 2.0625 C-3.98531648 1.99970633 -2.68573526 1.43878675 0 0 Z " fill="#B42645" transform="translate(308,222)"/>
<path d="M0 0 C11.88 0 23.76 0 36 0 C36 0.33 36 0.66 36 1 C26.76 1.33 17.52 1.66 8 2 C8 2.99 8 3.98 8 5 C8.99 5.33 9.98 5.66 11 6 C11 6.66 11 7.32 11 8 C6.97488434 6.78310457 3.40742883 5.50546238 0 3 C0 2.01 0 1.02 0 0 Z " fill="#34427A" transform="translate(284,160)"/>
<path d="M0 0 C2.125 0.375 2.125 0.375 4 1 C1.5 2.5 1.5 2.5 -1 4 C-1.825 4.515625 -2.65 5.03125 -3.5 5.5625 C-5.94972948 6.97109445 -8.38083954 7.95233582 -11 9 C-11.886875 9.53625 -12.77375 10.0725 -13.6875 10.625 C-16 12 -16 12 -18 12 C-18 12.99 -18 13.98 -18 15 C-21.33333333 16.33333333 -24.66666667 17.66666667 -28 19 C-28 18.34 -28 17.68 -28 17 C-26.948125 16.443125 -25.89625 15.88625 -24.8125 15.3125 C-22.10517054 13.78962718 -20.54704267 12.53650878 -18.3125 10.25 C-16 8 -16 8 -12 8 C-12 7.34 -12 6.68 -12 6 C-10.68 6 -9.36 6 -8 6 C-8 5.34 -8 4.68 -8 4 C-7.05125 3.71125 -6.1025 3.4225 -5.125 3.125 C-1.94788422 2.23174891 -1.94788422 2.23174891 0 0 Z " fill="#A72A4A" transform="translate(50,369)"/>
<path d="M0 0 C0.89203125 0.20367187 1.7840625 0.40734375 2.703125 0.6171875 C3.37859375 0.78476563 4.0540625 0.95234375 4.75 1.125 C4.75 1.455 4.75 1.785 4.75 2.125 C3.1 2.455 1.45 2.785 -0.25 3.125 C0.74 4.053125 0.74 4.053125 1.75 5 C3.75 7.125 3.75 7.125 3.75 9.125 C2.43 8.795 1.11 8.465 -0.25 8.125 C-0.58 8.785 -0.91 9.445 -1.25 10.125 C-2.9 9.795 -4.55 9.465 -6.25 9.125 C-6.25 8.465 -6.25 7.805 -6.25 7.125 C-5.26 6.795 -4.27 6.465 -3.25 6.125 C-2.92 5.135 -2.59 4.145 -2.25 3.125 C-4.56 3.455 -6.87 3.785 -9.25 4.125 C-9.25 3.135 -9.25 2.145 -9.25 1.125 C-5.82794357 -1.03377391 -3.8855015 -0.92025036 0 0 Z " fill="#C4232B" transform="translate(57.25,178.875)"/>
<path d="M0 0 C0.99 0.99 1.98 1.98 3 3 C2.54464901 4.56337173 2.08557224 6.12565849 1.625 7.6875 C1.24214844 8.99267578 1.24214844 8.99267578 0.8515625 10.32421875 C0.02382686 12.92513119 -0.98630809 15.46577023 -2 18 C-6.29 18 -10.58 18 -15 18 C-15 17.67 -15 17.34 -15 17 C-10.9472484 16.01751476 -7.16138263 15.91840426 -3 16 C-3 13.03 -3 10.06 -3 7 C-2.34 6.67 -1.68 6.34 -1 6 C-0.34227572 2.97065509 -0.34227572 2.97065509 0 0 Z " fill="#BA2B37" transform="translate(103,161)"/>
<path d="M0 0 C2.64 0.66 5.28 1.32 8 2 C8 2.99 8 3.98 8 5 C8.7425 5.28875 9.485 5.5775 10.25 5.875 C12.56739797 6.82302644 14.77917115 7.84845911 17 9 C15 10 15 10 13.0546875 9.44140625 C12.33539063 9.15136719 11.61609375 8.86132812 10.875 8.5625 C10.15054687 8.27503906 9.42609375 7.98757812 8.6796875 7.69140625 C8.12539063 7.46324219 7.57109375 7.23507813 7 7 C7 6.34 7 5.68 7 5 C1.43282467 7.35456323 1.43282467 7.35456323 -4 10 C-4 8.68 -4 7.36 -4 6 C-1 4 -1 4 2 4 C2 3.34 2 2.68 2 2 C1.34 2 0.68 2 0 2 C0 1.34 0 0.68 0 0 Z " fill="#C22831" transform="translate(276,158)"/>
<path d="M0 0 C0.66 0 1.32 0 2 0 C2 0.66 2 1.32 2 2 C2.57363281 2.13664062 3.14726563 2.27328125 3.73828125 2.4140625 C5.929996 2.98186425 8.05011842 3.629122 10.1875 4.375 C10.88230469 4.60960938 11.57710937 4.84421875 12.29296875 5.0859375 C14 6 14 6 15 9 C14.01 9 13.02 9 12 9 C12 9.66 12 10.32 12 11 C13.32 11.33 14.64 11.66 16 12 C16 12.66 16 13.32 16 14 C14.02 14 12.04 14 10 14 C8.23537317 10.91190305 8 9.76687864 8 6 C6.2984375 5.3503125 6.2984375 5.3503125 4.5625 4.6875 C3.386875 4.130625 2.21125 3.57375 1 3 C0.67 2.01 0.34 1.02 0 0 Z " fill="#CD1F30" transform="translate(104,60)"/>
<path d="M0 0 C3.85048062 0.55392879 6.2379586 1.5986631 9.375 3.875 C13.14356532 6.50100196 16.717971 8.360074 21 10 C21 10.33 21 10.66 21 11 C18.69 11.33 16.38 11.66 14 12 C14 11.34 14 10.68 14 10 C13.01 10 12.02 10 11 10 C11 9.34 11 8.68 11 8 C8.525 7.01 8.525 7.01 6 6 C6 5.34 6 4.68 6 4 C4.35 3.67 2.7 3.34 1 3 C0.67 2.01 0.34 1.02 0 0 Z " fill="#B8273D" transform="translate(26,16)"/>
<path d="M0 0 C0.33 0 0.66 0 1 0 C1 3.3 1 6.6 1 10 C0.34 10 -0.32 10 -1 10 C-1.33 10.99 -1.66 11.98 -2 13 C1.465 12.505 1.465 12.505 5 12 C3.33784732 13.33895632 1.67036393 14.67130142 0 16 C-0.721875 16.5775 -1.44375 17.155 -2.1875 17.75 C-4 19 -4 19 -6 19 C-4.3186083 12.51292846 -2.46937673 6.2322365 0 0 Z " fill="#FAD8D7" transform="translate(83,233)"/>
<path d="M0 0 C1.98 0.99 1.98 0.99 4 2 C3.67 3.65 3.34 5.3 3 7 C3.99 7 4.98 7 6 7 C8.1355094 11.52225519 8.1355094 11.52225519 7.46484375 13.88671875 C6.86784927 16.6007861 7.49355649 17.99867191 8.5 20.5625 C10.10861133 24.67416602 10.10861133 24.67416602 9 28 C7.49223384 23.89864435 5.99512424 19.79347933 4.5 15.6875 C4.07074219 14.52025391 3.64148438 13.35300781 3.19921875 12.15039062 C2.79316406 11.03212891 2.38710937 9.91386719 1.96875 8.76171875 C1.59169922 7.73006592 1.21464844 6.69841309 0.82617188 5.63549805 C0 3 0 3 0 0 Z " fill="#B9202C" transform="translate(144,218)"/>
<path d="M0 0 C1.32 0 2.64 0 4 0 C3.67 1.093125 3.34 2.18625 3 3.3125 C1.86913351 6.84578884 1.86913351 6.84578884 2 10 C0.02 9.34 -1.96 8.68 -4 8 C-4 7.34 -4 6.68 -4 6 C-5.423125 5.8453125 -5.423125 5.8453125 -6.875 5.6875 C-10 5 -10 5 -12 2 C-9.36 2.66 -6.72 3.32 -4 4 C-3.67 3.34 -3.34 2.68 -3 2 C-2.01 2 -1.02 2 0 2 C0 1.34 0 0.68 0 0 Z " fill="#493273" transform="translate(26,6)"/>
<path d="M0 0 C5.11343777 1.20316183 7.94498966 2.55324121 12 6 C14.29499536 7.41452544 16.63556268 8.70187755 19 10 C19 10.33 19 10.66 19 11 C14.74527368 11.12156361 10.85502243 10.92751122 7 9 C6.375 6.4375 6.375 6.4375 6 4 C4.68 4 3.36 4 2 4 C1.34 2.68 0.68 1.36 0 0 Z " fill="#BB2244" transform="translate(306,175)"/>
<path d="M0 0 C-0.73605469 0.45890625 -1.47210938 0.9178125 -2.23046875 1.390625 C-3.20628906 2.00421875 -4.18210937 2.6178125 -5.1875 3.25 C-6.63189453 4.15492188 -6.63189453 4.15492188 -8.10546875 5.078125 C-11.02303067 6.94076737 -11.02303067 6.94076737 -13.59375 9.15625 C-16.98721418 11.75643684 -19.84977904 12.15588726 -24 13 C-21.65286393 10.27732215 -19.62437707 8.71863763 -16.3125 7.4375 C-15.219375 6.963125 -14.12625 6.48875 -13 6 C-12.67 5.01 -12.34 4.02 -12 3 C-10.02 2.67 -8.04 2.34 -6 2 C-6 1.34 -6 0.68 -6 0 C-2.25 -1.125 -2.25 -1.125 0 0 Z " fill="#652B62" transform="translate(98,345)"/>
<path d="M0 0 C-0.66 0 -1.32 0 -2 0 C-2.66 1.65 -3.32 3.3 -4 5 C-8.95 5.33 -13.9 5.66 -19 6 C-15.32829729 2.32829729 -12.44208354 0.938743 -7.4375 -0.1875 C-6.67308594 -0.36667969 -5.90867188 -0.54585938 -5.12109375 -0.73046875 C-3 -1 -3 -1 0 0 Z " fill="#F9FCFB" transform="translate(160,314)"/>
<path d="M0 0 C3.35433109 0.94933899 6.69246505 1.89748835 10 3 C10 3.66 10 4.32 10 5 C14.82442184 3.73053486 14.82442184 3.73053486 18 0 C18.66 0 19.32 0 20 0 C19.42655063 2.86724686 19.1385485 3.8614515 17 6 C16.01 6 15.02 6 14 6 C14 6.66 14 7.32 14 8 C12.3501725 7.57781184 10.70516335 7.13675575 9.0625 6.6875 C8.14597656 6.44386719 7.22945312 6.20023438 6.28515625 5.94921875 C5.15400391 5.47935547 5.15400391 5.47935547 4 5 C3.67 4.01 3.34 3.02 3 2 C2.01 1.67 1.02 1.34 0 1 C0 0.67 0 0.34 0 0 Z " fill="#3F3374" transform="translate(44,24)"/>
<path d="M0 0 C2.64 0 5.28 0 8 0 C8 0.66 8 1.32 8 2 C9.175625 2.185625 9.175625 2.185625 10.375 2.375 C13 3 13 3 15 5 C14.67 5.99 14.34 6.98 14 8 C10.0397381 7.43726296 7.47032673 6.26476935 4.1875 4 C3.39730469 3.46375 2.60710938 2.9275 1.79296875 2.375 C1.20128906 1.92125 0.60960938 1.4675 0 1 C0 0.67 0 0.34 0 0 Z " fill="#3D3277" transform="translate(30,16)"/>
<path d="M0 0 C3.92153484 0.65720013 7.38376481 1.81031104 11.0625 3.3125 C12.59583984 3.92544922 12.59583984 3.92544922 14.16015625 4.55078125 C17.08130227 6.04148988 18.90903494 7.48783334 21 10 C21 10.66 21 11.32 21 12 C16.26525903 10.3003494 12.03832889 7.86340973 7.6875 5.375 C6.94693359 4.95476562 6.20636719 4.53453125 5.44335938 4.1015625 C3.62730989 3.07051505 1.81343467 2.03563954 0 1 C0 0.67 0 0.34 0 0 Z " fill="#FBE0DE" transform="translate(253,144)"/>
<path d="M0 0 C5.07634826 1.7989503 9.63713611 4.49026455 14.3125 7.125 C15.14845703 7.59292969 15.98441406 8.06085938 16.84570312 8.54296875 C18.89866233 9.6926259 20.95002202 10.84503802 23 12 C22.01 12.66 21.02 13.32 20 14 C14.6356157 11.50208059 10.0778244 9.36909757 6 5 C4.03120677 3.93988057 2.03564133 2.92529151 0 2 C0 1.34 0 0.68 0 0 Z " fill="#B33440" transform="translate(169,97)"/>
<path d="M0 0 C-0.33 0.33 -0.66 0.66 -1 1 C0.32 1.33 1.64 1.66 3 2 C3.33 1.01 3.66 0.02 4 -1 C5.32 -0.34 6.64 0.32 8 1 C1.25 4 1.25 4 -1 4 C-1.33 4.99 -1.66 5.98 -2 7 C-2.66 6.67 -3.32 6.34 -4 6 C-3.34 5.01 -2.68 4.02 -2 3 C-3.98 3.99 -3.98 3.99 -6 5 C-6 4.34 -6 3.68 -6 3 C-7.32 3 -8.64 3 -10 3 C-9.67 2.01 -9.34 1.02 -9 0 C-3.375 -1.125 -3.375 -1.125 0 0 Z " fill="#C32335" transform="translate(126,323)"/>
<path d="M0 0 C0.66 0 1.32 0 2 0 C2 0.66 2 1.32 2 2 C3.65 2.33 5.3 2.66 7 3 C7 3.66 7 4.32 7 5 C7.66 5 8.32 5 9 5 C9 4.34 9 3.68 9 3 C10.98 2.67 12.96 2.34 15 2 C12.52601863 4.65069433 10.42357749 6.71615844 7 8 C5.68 8 4.36 8 3 8 C3 7.34 3 6.68 3 6 C2.34 6 1.68 6 1 6 C0.67 4.02 0.34 2.04 0 0 Z " fill="#C82426" transform="translate(307,214)"/>
<path d="M0 0 C5.75 0.875 5.75 0.875 8 2 C8 3.32 8 4.64 8 6 C2.88888889 10 2.88888889 10 0 10 C0 9.01 0 8.02 0 7 C0.66 6.67 1.32 6.34 2 6 C1.34 5.67 0.68 5.34 0 5 C0 4.34 0 3.68 0 3 C0.99 3 1.98 3 3 3 C3 2.34 3 1.68 3 1 C2.01 0.67 1.02 0.34 0 0 Z " fill="#B3263F" transform="translate(340,196)"/>
<path d="M0 0 C0 0.33 0 0.66 0 1 C-2.31 1 -4.62 1 -7 1 C-6.67 2.98 -6.34 4.96 -6 7 C-4.02 7.66 -2.04 8.32 0 9 C-0.33 9.99 -0.66 10.98 -1 12 C-3.16959299 10.35790421 -5.33572532 8.71157832 -7.5 7.0625 C-8.12003906 6.59392578 -8.74007812 6.12535156 -9.37890625 5.64257812 C-10.93766786 4.45209536 -12.47109164 3.22858708 -14 2 C-14 1.67 -14 1.34 -14 1 C-9.23692563 0.04738513 -4.8333472 -0.08333357 0 0 Z " fill="#FAD4D4" transform="translate(70,180)"/>
<path d="M0 0 C1.6498275 0.42218816 3.29483665 0.86324425 4.9375 1.3125 C6.31228516 1.67794922 6.31228516 1.67794922 7.71484375 2.05078125 C8.46894531 2.36402344 9.22304687 2.67726562 10 3 C10.33 3.99 10.66 4.98 11 6 C13.32671865 7.01529541 15.6603447 8.01488198 18 9 C18.99 10.485 18.99 10.485 20 12 C17.03 11.505 17.03 11.505 14 11 C14 10.34 14 9.68 14 9 C12.68 9 11.36 9 10 9 C8.62150897 7.71340837 7.29470975 6.37086915 6 5 C4.00591923 3.65783025 2.00698975 2.3227887 0 1 C0 0.67 0 0.34 0 0 Z " fill="#972752" transform="translate(74,42)"/>
<path d="M0 0 C2.31 0.33 4.62 0.66 7 1 C7.33 2.32 7.66 3.64 8 5 C8.66 5 9.32 5 10 5 C10.33 4.34 10.66 3.68 11 3 C11.66 2.67 12.32 2.34 13 2 C13.66 4.64 14.32 7.28 15 10 C11.58809167 8.38340534 8.43782465 6.45729895 5.25 4.4375 C4.26515625 3.81746094 3.2803125 3.19742188 2.265625 2.55859375 C1.51796875 2.04425781 0.7703125 1.52992188 0 1 C0 0.67 0 0.34 0 0 Z " fill="#F9D1D2" transform="translate(140,242)"/>
<path d="M0 0 C0.66 0 1.32 0 2 0 C2.67260351 1.76858691 3.33788395 3.53996016 4 5.3125 C4.37125 6.29863281 4.7425 7.28476563 5.125 8.30078125 C6 11 6 11 6 14 C5.34 14 4.68 14 4 14 C3.67 13.01 3.34 12.02 3 11 C3.33 10.34 3.66 9.68 4 9 C3.34 9 2.68 9 2 9 C2 8.34 2 7.68 2 7 C1.01 7 0.02 7 -1 7 C-1.33 8.32 -1.66 9.64 -2 11 C-3 9 -3 9 -2.44140625 6.8359375 C-2.15136719 6.02382812 -1.86132812 5.21171875 -1.5625 4.375 C-1.27503906 3.55773437 -0.98757812 2.74046875 -0.69140625 1.8984375 C-0.46324219 1.27195313 -0.23507813 0.64546875 0 0 Z " fill="#F9D2D3" transform="translate(115,136)"/>
<path d="M0 0 C2.3431213 0.25561323 4.67843403 0.59270772 7 1 C7.33 1.66 7.66 2.32 8 3 C9.4540625 3.433125 9.4540625 3.433125 10.9375 3.875 C14 5 14 5 15.19140625 7.0703125 C15.45824219 7.70710937 15.72507812 8.34390625 16 9 C9.47203304 7.41316218 4.79591356 5.79591356 0 1 C0 0.67 0 0.34 0 0 Z " fill="#592D65" transform="translate(295,168)"/>
<path d="M0 0 C0.66 0.33 1.32 0.66 2 1 C2 2.98 2 4.96 2 7 C3.32 7 4.64 7 6 7 C6 7.66 6 8.32 6 9 C2.64566891 8.05066101 -0.69246505 7.10251165 -4 6 C-4 5.34 -4 4.68 -4 4 C-4.99 3.67 -5.98 3.34 -7 3 C-5 2 -5 2 -2.9375 1.5 C-1.00759217 1.17692051 -1.00759217 1.17692051 0 0 Z " fill="#2F357D" transform="translate(334,184)"/>
<path d="M0 0 C0.66 0.33 1.32 0.66 2 1 C2 2.98 2 4.96 2 7 C3.32 7 4.64 7 6 7 C6 7.66 6 8.32 6 9 C2.64566891 8.05066101 -0.69246505 7.10251165 -4 6 C-4 5.34 -4 4.68 -4 4 C-4.99 3.67 -5.98 3.34 -7 3 C-5 2 -5 2 -2.9375 1.5 C-1.00759217 1.17692051 -1.00759217 1.17692051 0 0 Z " fill="#2F357D" transform="translate(110,56)"/>
<path d="M0 0 C0 0.66 0 1.32 0 2 C-0.66 2 -1.32 2 -2 2 C-2 2.66 -2 3.32 -2 4 C-3.32 4 -4.64 4 -6 4 C-6 4.66 -6 5.32 -6 6 C-7.29009643 6.50403768 -8.58213789 7.00309926 -9.875 7.5 C-10.95394531 7.91765625 -10.95394531 7.91765625 -12.0546875 8.34375 C-14 9 -14 9 -16 9 C-16 8.34 -16 7.68 -16 7 C-14.68 7 -13.36 7 -12 7 C-11.67 6.01 -11.34 5.02 -11 4 C-9.00390625 2.83203125 -9.00390625 2.83203125 -6.5625 1.8125 C-5.35787109 1.29623047 -5.35787109 1.29623047 -4.12890625 0.76953125 C-2 0 -2 0 0 0 Z " fill="#5D2D65" transform="translate(118,333)"/>
<path d="M0 0 C0.99 0.33 1.98 0.66 3 1 C2.34 1 1.68 1 1 1 C1 1.66 1 2.32 1 3 C1.66 3.33 2.32 3.66 3 4 C2.236875 4.12375 1.47375 4.2475 0.6875 4.375 C-2.20267136 4.88102792 -2.20267136 4.88102792 -5 7 C-6.19232613 9.05003955 -6.19232613 9.05003955 -7 11 C-7.99 11 -8.98 11 -10 11 C-10 10.01 -10 9.02 -10 8 C-7.91796875 5.921875 -7.91796875 5.921875 -5.1875 3.75 C-4.29417969 3.02296875 -3.40085938 2.2959375 -2.48046875 1.546875 C-1.25263672 0.78117188 -1.25263672 0.78117188 0 0 Z " fill="#B5202A" transform="translate(171,185)"/>
<path d="M0 0 C2.6875 0.875 2.6875 0.875 5 2 C5 1.34 5 0.68 5 0 C5.99 0.33 6.98 0.66 8 1 C3.545 4.465 3.545 4.465 -1 8 C-1.33 6.68 -1.66 5.36 -2 4 C-2.33 3.34 -2.66 2.68 -3 2 C-2.01 1.34 -1.02 0.68 0 0 Z " fill="#FCE7E7" transform="translate(164,184)"/>
<path d="M0 0 C3.79049707 1.42749981 7.27122456 3.16236542 10.8125 5.125 C12.27623047 5.93324219 12.27623047 5.93324219 13.76953125 6.7578125 C14.50558594 7.16773438 15.24164063 7.57765625 16 8 C15.34 8.66 14.68 9.32 14 10 C4.05943087 5.92848149 4.05943087 5.92848149 0 2 C0 1.34 0 0.68 0 0 Z " fill="#C12E3D" transform="translate(230,132)"/>
<path d="M0 0 C-0.33 1.32 -0.66 2.64 -1 4 C-2.65 4.33 -4.3 4.66 -6 5 C-5.67 3.68 -5.34 2.36 -5 1 C-8.72614153 2.11854586 -8.72614153 2.11854586 -11 5 C-12.32 4.67 -13.64 4.34 -15 4 C-9.56969667 -0.67609453 -7.01296751 -1.43447063 0 0 Z " fill="#333579" transform="translate(110,342)"/>
<path d="M0 0 C-2.28874173 1.33858524 -4.58069656 2.67101014 -6.875 4 C-7.52597656 4.3815625 -8.17695313 4.763125 -8.84765625 5.15625 C-13.7734375 8 -13.7734375 8 -16 8 C-16 7.34 -16 6.68 -16 6 C-11.64223013 1.9774432 -5.9637606 -1.9879202 0 0 Z " fill="#BC2E3B" transform="translate(191,291)"/>
<path d="M0 0 C2.97 0.99 5.94 1.98 9 3 C9 3.66 9 4.32 9 5 C9.99 5 10.98 5 12 5 C12 4.34 12 3.68 12 3 C13.32 3.33 14.64 3.66 16 4 C16 5.65 16 7.3 16 9 C13.89031276 8.26567234 11.78737867 7.51192319 9.6875 6.75 C8.51574219 6.33234375 7.34398437 5.9146875 6.13671875 5.484375 C2.98027886 3.99066746 1.74994239 2.95658137 0 0 Z " fill="#42326F" transform="translate(124,70)"/>
<path d="M0 0 C5.53192638 3.06021459 10.77383293 6.4447843 16 10 C13 11 13 11 10.4375 10.25 C8 9 8 9 6 6 C3.43717258 5.27034634 3.43717258 5.27034634 1 5 C0.67 3.35 0.34 1.7 0 0 Z " fill="#B02534" transform="translate(136,240)"/>
<path d="M0 0 C3.79049707 1.42749981 7.27122456 3.16236542 10.8125 5.125 C12.27623047 5.93324219 12.27623047 5.93324219 13.76953125 6.7578125 C14.50558594 7.16773438 15.24164063 7.57765625 16 8 C15.67 8.99 15.34 9.98 15 11 C14.34 11 13.68 11 13 11 C13 10.01 13 9.02 13 8 C12.34 7.938125 11.68 7.87625 11 7.8125 C6.8783325 6.69621505 3.34249498 4.66238434 0 2 C0 1.34 0 0.68 0 0 Z " fill="#BC3542" transform="translate(246,141)"/>
<path d="M0 0 C2.31 0 4.62 0 7 0 C6.443125 0.4125 5.88625 0.825 5.3125 1.25 C3.68310639 2.48305462 2.10273405 3.78223185 0.5625 5.125 C-2.08106754 7.05931771 -3.78536369 7.63261299 -7 8 C-5.625 6 -5.625 6 -4 4 C-3.34 4 -2.68 4 -2 4 C-1.34 2.68 -0.68 1.36 0 0 Z " fill="#B22E43" transform="translate(141,315)"/>
<path d="M0 0 C-0.625 1.875 -0.625 1.875 -2 4 C-3.97888961 4.72693904 -5.97954558 5.39816251 -8 6 C-8.33 6.66 -8.66 7.32 -9 8 C-10.32 8 -11.64 8 -13 8 C-13 8.66 -13 9.32 -13 10 C-14.32 9.67 -15.64 9.34 -17 9 C-14.54481265 7.49462965 -12.0861548 5.99555574 -9.625 4.5 C-8.92632812 4.07074219 -8.22765625 3.64148438 -7.5078125 3.19921875 C-2.2265625 0 -2.2265625 0 0 0 Z " fill="#FBD7DD" transform="translate(242,262)"/>
<path d="M0 0 C0.99 0.33 1.98 0.66 3 1 C0.06698229 3.27138348 -2.95068793 5.26869942 -6.125 7.1875 C-6.99382812 7.71730469 -7.86265625 8.24710937 -8.7578125 8.79296875 C-11 10 -11 10 -13 10 C-13 9.01 -13 8.02 -13 7 C-11.35 6.67 -9.7 6.34 -8 6 C-8 5.34 -8 4.68 -8 4 C-5.36 3.34 -2.72 2.68 0 2 C0 1.34 0 0.68 0 0 Z " fill="#BB3643" transform="translate(259,249)"/>
<path d="M0 0 C0 0.99 0 1.98 0 3 C-1.32 3 -2.64 3 -4 3 C-4 3.66 -4 4.32 -4 5 C-5.29009643 5.50403768 -6.58213789 6.00309926 -7.875 6.5 C-8.95394531 6.91765625 -8.95394531 6.91765625 -10.0546875 7.34375 C-12 8 -12 8 -14 8 C-14 7.34 -14 6.68 -14 6 C-12.68 6 -11.36 6 -10 6 C-9.67 5.01 -9.34 4.02 -9 3 C-2.88888889 0 -2.88888889 0 0 0 Z " fill="#602D66" transform="translate(340,206)"/>
<path d="M0 0 C2.475 0.99 2.475 0.99 5 2 C5 4.31 5 6.62 5 9 C2.36 7.68 -0.28 6.36 -3 5 C-2.01 4.01 -1.02 3.02 0 2 C0 1.34 0 0.68 0 0 Z " fill="#FBEBED" transform="translate(235,128)"/>
<path d="M0 0 C-5.28 2.97 -10.56 5.94 -16 9 C-16 8.01 -16 7.02 -16 6 C-14.29280642 5.02924287 -12.58520657 4.05918919 -10.875 3.09375 C-9.31746254 2.18518648 -7.80745536 1.19572571 -6.3125 0.1875 C-4 -1 -4 -1 0 0 Z " fill="#BC2E3E" transform="translate(246,260)"/>
<path d="M0 0 C0.66 0 1.32 0 2 0 C-0.03807293 7.1178153 -2.40344742 14.06707281 -5 21 C-6.4245373 16.52581026 -5.0646781 13.12004752 -3.625 8.8125 C-3.39039062 8.07580078 -3.15578125 7.33910156 -2.9140625 6.58007812 C-1.15836522 1.15836522 -1.15836522 1.15836522 0 0 Z " fill="#B2212E" transform="translate(86,220)"/>
<path d="M0 0 C0.66 0.33 1.32 0.66 2 1 C-3.43174785 5.67382954 -7.65306677 9.14570544 -15 10 C-14 8 -14 8 -11.75 7.125 C-8.6490096 5.85641302 -6.57976528 4.11673049 -4 2 C-1.8125 0.6875 -1.8125 0.6875 0 0 Z " fill="#532D66" transform="translate(310,222)"/>
<path d="M0 0 C11.15889691 3.0551543 11.15889691 3.0551543 15 6 C15 6.66 15 7.32 15 8 C12.75 8.25 12.75 8.25 10 8 C8.62298702 6.71182656 7.29355827 5.37195574 6 4 C4.03120677 2.93988057 2.03564133 1.92529151 0 1 C0 0.67 0 0.34 0 0 Z " fill="#992A53" transform="translate(49,29)"/>
<path d="M0 0 C3.22973344 1.47813887 5.88997098 3.31746497 8.6875 5.5 C9.47511719 6.1084375 10.26273438 6.716875 11.07421875 7.34375 C13 9 13 9 14 11 C12.68 10.67 11.36 10.34 10 10 C10 9.34 10 8.68 10 8 C9.443125 7.9175 8.88625 7.835 8.3125 7.75 C5.24798184 6.75610222 3.35970113 5.16837401 1 3 C0.67 2.01 0.34 1.02 0 0 Z " fill="#B62635" transform="translate(66,190)"/>
<path d="M0 0 C4.54104355 1.26726797 7.45154396 2.91844607 11 6 C12.32901064 7.00573778 13.66073801 8.00795408 15 9 C11.61976483 9 9.16531063 8.12544378 6 7 C6 6.34 6 5.68 6 5 C5.38125 4.731875 4.7625 4.46375 4.125 4.1875 C2 3 2 3 0 0 Z " fill="#AC3047" transform="translate(133,76)"/>
<path d="M0 0 C2.625 -0.1875 2.625 -0.1875 5 0 C1.0826156 3.42771135 -4.52151811 8 -10 8 C-10.33 7.01 -10.66 6.02 -11 5 C-10.37351563 4.89042969 -9.74703125 4.78085937 -9.1015625 4.66796875 C-7.87566406 4.43013672 -7.87566406 4.43013672 -6.625 4.1875 C-5.81289063 4.03667969 -5.00078125 3.88585937 -4.1640625 3.73046875 C-1.64179359 3.12455058 -1.64179359 3.12455058 0 0 Z " fill="#BC2443" transform="translate(69,357)"/>
<path d="M0 0 C-4.02167317 2.96837781 -7.00088076 4.52389341 -12 5 C-11.67 4.01 -11.34 3.02 -11 2 C-10.34 2 -9.68 2 -9 2 C-8.67 1.34 -8.34 0.68 -8 0 C-5.00463263 -1.13617383 -3.02121511 -0.97110486 0 0 Z " fill="#F9EAE9" transform="translate(95,241)"/>
<path d="M0 0 C0.89203125 0.20367187 1.7840625 0.40734375 2.703125 0.6171875 C3.37859375 0.78476563 4.0540625 0.95234375 4.75 1.125 C4.75 1.455 4.75 1.785 4.75 2.125 C0.13 2.785 -4.49 3.445 -9.25 4.125 C-9.25 3.135 -9.25 2.145 -9.25 1.125 C-5.82794357 -1.03377391 -3.8855015 -0.92025036 0 0 Z " fill="#C9353F" transform="translate(57.25,178.875)"/>
<path d="M0 0 C4.97209562 1.76429199 9.43438061 4.3939166 14 7 C13.34 7.66 12.68 8.32 12 9 C10.68 8.34 9.36 7.68 8 7 C8 6.34 8 5.68 8 5 C6.68 5 5.36 5 4 5 C4 4.34 4 3.68 4 3 C2.68 3 1.36 3 0 3 C0 2.01 0 1.02 0 0 Z " fill="#BC343F" transform="translate(216,124)"/>
<path d="M0 0 C7.38461538 0.49230769 7.38461538 0.49230769 10.5 3.0625 C10.995 3.701875 11.49 4.34125 12 5 C7.74527368 5.12156361 3.85502243 4.92751122 0 3 C0 2.01 0 1.02 0 0 Z " fill="#BB2244" transform="translate(89,53)"/>
<path d="M0 0 C0.66 0.33 1.32 0.66 2 1 C0.02 1.66 -1.96 2.32 -4 3 C-4 3.99 -4 4.98 -4 6 C-7.33333333 7.33333333 -10.66666667 8.66666667 -14 10 C-14 9.34 -14 8.68 -14 8 C-12.9275 7.401875 -11.855 6.80375 -10.75 6.1875 C-8.62762879 4.98082927 -6.70812553 3.78109414 -4.75 2.3125 C-3 1 -3 1 0 0 Z " fill="#7C3057" transform="translate(36,378)"/>
<path d="M0 0 C0.66 0.33 1.32 0.66 2 1 C-0.75 5.875 -0.75 5.875 -3 7 C-4.66619446 7.0396713 -6.33391013 7.04384447 -8 7 C-8.33 6.34 -8.66 5.68 -9 5 C-7.54735962 4.1361871 -6.0876837 3.28419546 -4.625 2.4375 C-3.40683594 1.72400391 -3.40683594 1.72400391 -2.1640625 0.99609375 C-1.44992188 0.66738281 -0.73578125 0.33867187 0 0 Z " fill="#FCE6E5" transform="translate(251,256)"/>
<path d="M0 0 C-0.33 1.98 -0.66 3.96 -1 6 C-5.75 4.125 -5.75 4.125 -8 3 C-8 2.34 -8 1.68 -8 1 C-5.07175348 0.02391783 -3.04386724 -0.08226668 0 0 Z " fill="#323675" transform="translate(72,34)"/>
<path d="M0 0 C-0.33 1.65 -0.66 3.3 -1 5 C-2.75 5.6875 -2.75 5.6875 -5 6 C-7.25 4.5625 -7.25 4.5625 -9 3 C-2.25 0 -2.25 0 0 0 Z " fill="#37337B" transform="translate(141,321)"/>
<path d="M0 0 C0.515625 0.2475 1.03125 0.495 1.5625 0.75 C1.5625 1.74 1.5625 2.73 1.5625 3.75 C-2.3975 4.41 -6.3575 5.07 -10.4375 5.75 C-8.5568632 1.9887264 -4.12158654 -0.42272682 0 0 Z " fill="#34366E" transform="translate(22.4375,388.25)"/>
<path d="M0 0 C2.97 0 5.94 0 9 0 C7.73295613 2.53408774 6.56876843 2.93209972 4.0625 4.1875 C3.35222656 4.55230469 2.64195313 4.91710937 1.91015625 5.29296875 C1.27980469 5.52628906 0.64945312 5.75960938 0 6 C-0.66 5.67 -1.32 5.34 -2 5 C-1.34 3.35 -0.68 1.7 0 0 Z " fill="#B5273D" transform="translate(113,330)"/>
<path d="M0 0 C1.65 0 3.3 0 5 0 C5 0.66 5 1.32 5 2 C7.64 2.66 10.28 3.32 13 4 C12.01 4.495 12.01 4.495 11 5 C10.67 5.66 10.34 6.32 10 7 C8.33073546 6.02526874 6.66464358 5.04510211 5 4.0625 C4.071875 3.51722656 3.14375 2.97195312 2.1875 2.41015625 C1.465625 1.94480469 0.74375 1.47945313 0 1 C0 0.67 0 0.34 0 0 Z " fill="#FBE1DD" transform="translate(197,112)"/>
<path d="M0 0 C0.66 0 1.32 0 2 0 C2 0.66 2 1.32 2 2 C2.57363281 2.13535156 3.14726563 2.27070312 3.73828125 2.41015625 C5.94008107 2.98437347 8.04852802 3.66297544 10.1875 4.4375 C11.22970703 4.80681641 11.22970703 4.80681641 12.29296875 5.18359375 C14 6 14 6 15 8 C9.86865375 7.48686537 5.25162208 5.94265013 1 3 C0.67 2.01 0.34 1.02 0 0 Z " fill="#A32B4B" transform="translate(104,60)"/>
<path d="M0 0 C0.5775 0.226875 1.155 0.45375 1.75 0.6875 C-1.85957611 3.9785841 -4.37637153 5.23413921 -9.25 5.6875 C-3.38551402 -0.47021028 -3.38551402 -0.47021028 0 0 Z " fill="#4C3264" transform="translate(10.25,394.3125)"/>
<path d="M0 0 C5.52628901 1.19194469 8.17819158 2.5991297 12 7 C9.03 6.505 9.03 6.505 6 6 C6 5.34 6 4.68 6 4 C4.68 4 3.36 4 2 4 C1.34 2.68 0.68 1.36 0 0 Z " fill="#972752" transform="translate(306,175)"/>
<path d="M0 0 C2.64 0 5.28 0 8 0 C8 0.99 8 1.98 8 3 C8.99 3.33 9.98 3.66 11 4 C11 4.66 11 5.32 11 6 C6.49197399 4.74194623 3.5087188 3.09592835 0 0 Z " fill="#472E6D" transform="translate(284,162)"/>
<path d="M0 0 C6.70212766 1.93617021 6.70212766 1.93617021 9 5 C9 5.66 9 6.32 9 7 C5.9168649 5.80100302 2.93720508 4.52299523 0 3 C0 2.01 0 1.02 0 0 Z " fill="#FDE7E7" transform="translate(265,149)"/>
<path d="M0 0 C-3.75 3 -3.75 3 -6 3 C-6 3.66 -6 4.32 -6 5 C-7.32 5 -8.64 5 -10 5 C-9.01906046 2.54765115 -8.31296172 1.2190732 -6.125 -0.3125 C-3.64990694 -1.1132654 -2.41712366 -0.86325845 0 0 Z " fill="#2F348B" transform="translate(140,67)"/>
<path d="M0 0 C1.32 0 2.64 0 4 0 C4 0.66 4 1.32 4 2 C8.14093698 2.20970559 8.14093698 2.20970559 12 1 C12.33 2.65 12.66 4.3 13 6 C9.88452559 5.32116957 7.14862279 4.25893098 4.25 2.9375 C3.45078125 2.57527344 2.6515625 2.21304687 1.828125 1.83984375 C1.22484375 1.56269531 0.6215625 1.28554687 0 1 C0 0.67 0 0.34 0 0 Z " fill="#2E3773" transform="translate(10,5)"/>
<path d="M0 0 C-1.24252679 0.84443568 -2.4943886 1.6751458 -3.75 2.5 C-4.79414062 3.19609375 -4.79414062 3.19609375 -5.859375 3.90625 C-8 5 -8 5 -12 5 C-12 4.34 -12 3.68 -12 3 C-10.02 2.67 -8.04 2.34 -6 2 C-6 1.34 -6 0.68 -6 0 C-2.25 -1.125 -2.25 -1.125 0 0 Z " fill="#9B2654" transform="translate(98,345)"/>
<path d="M0 0 C0.78375 0.04125 1.5675 0.0825 2.375 0.125 C2.375 0.785 2.375 1.445 2.375 2.125 C-4.375 6.125 -4.375 6.125 -6.625 6.125 C-3.85227273 0.18344156 -3.85227273 0.18344156 0 0 Z " fill="#D81B2E" transform="translate(230.625,257.875)"/>
<path d="M0 0 C0.33 0.99 0.66 1.98 1 3 C-0.98 3.99 -0.98 3.99 -3 5 C-2.67 5.66 -2.34 6.32 -2 7 C-1.34 6.67 -0.68 6.34 0 6 C0 6.99 0 7.98 0 9 C-1.32 8.67 -2.64 8.34 -4 8 C-4.33 6.35 -4.66 4.7 -5 3 C-3.68 3 -2.36 3 -1 3 C-0.67 2.01 -0.34 1.02 0 0 Z " fill="#BD202A" transform="translate(159,243)"/>
<path d="M0 0 C-1.24252679 0.84443568 -2.4943886 1.6751458 -3.75 2.5 C-4.79414063 3.19609375 -4.79414063 3.19609375 -5.859375 3.90625 C-8 5 -8 5 -12 5 C-12 4.34 -12 3.68 -12 3 C-10.02 2.67 -8.04 2.34 -6 2 C-6 1.34 -6 0.68 -6 0 C-2.25 -1.125 -2.25 -1.125 0 0 Z " fill="#9B2654" transform="translate(322,217)"/>
<path d="M0 0 C1.32 0 2.64 0 4 0 C4 0.99 4 1.98 4 3 C4.7425 3.28875 5.485 3.5775 6.25 3.875 C8.56739797 4.82302644 10.77917115 5.84845911 13 7 C11 8 11 8 9.16015625 7.6171875 C5.4166674 6.29267562 3.43174522 5.58015764 1 2.3125 C0.67 1.549375 0.34 0.78625 0 0 Z " fill="#9D2C50" transform="translate(280,160)"/>
<path d="M0 0 C3.96 0 7.92 0 12 0 C12 0.99 12 1.98 12 3 C9.61435923 2.42415568 7.33317216 1.77772405 5 1 C4.67 1.66 4.34 2.32 4 3 C2.68 2.34 1.36 1.68 0 1 C0 0.67 0 0.34 0 0 Z " fill="#243982" transform="translate(5,1)"/>
<path d="M0 0 C2.125 0.375 2.125 0.375 4 1 C4 2.32 4 3.64 4 5 C2.68 5.33 1.36 5.66 0 6 C0 5.34 0 4.68 0 4 C-0.66 3.34 -1.32 2.68 -2 2 C-1.34 1.34 -0.68 0.68 0 0 Z " fill="#3F327C" transform="translate(40,376)"/>
<path d="M0 0 C2.57146057 2.57146057 2.80117997 4.6050417 3.625 8.125 C3.88539062 9.22070312 4.14578125 10.31640625 4.4140625 11.4453125 C4.70410156 12.70988281 4.70410156 12.70988281 5 14 C2.53303195 11.88827535 1.14881742 10.62961216 0.390625 7.421875 C0.34421875 6.54015625 0.2978125 5.6584375 0.25 4.75 C0.19328125 3.85796875 0.1365625 2.9659375 0.078125 2.046875 C0.05234375 1.37140625 0.0265625 0.6959375 0 0 Z " fill="#FBD6D7" transform="translate(123,156)"/>
<path d="M0 0 C0.66 0.33 1.32 0.66 2 1 C0.02 3.97 0.02 3.97 -2 7 C-2.33 6.34 -2.66 5.68 -3 5 C-4.65 5.33 -6.3 5.66 -8 6 C-5.63404067 3.38499232 -3.13950774 1.61000397 0 0 Z " fill="#FADFD9" transform="translate(184,294)"/>
<path d="M0 0 C0.66 0.33 1.32 0.66 2 1 C-0.61514317 3.12038635 -3.19637616 5.13091744 -6 7 C-8.1875 6.625 -8.1875 6.625 -10 6 C-8.3811004 4.96951963 -6.75467511 3.95085322 -5.125 2.9375 C-4.22007812 2.36902344 -3.31515625 1.80054688 -2.3828125 1.21484375 C-1.20332031 0.61349609 -1.20332031 0.61349609 0 0 Z " fill="#FDDADB" transform="translate(263,249)"/>
<path d="M0 0 C1.32 0 2.64 0 4 0 C3.67 0.66 3.34 1.32 3 2 C2.34 1.67 1.68 1.34 1 1 C0.34 2.65 -0.32 4.3 -1 6 C-2.65 6 -4.3 6 -6 6 C-6 5.34 -6 4.68 -6 4 C-4.7934375 3.566875 -4.7934375 3.566875 -3.5625 3.125 C-0.8673532 2.26737432 -0.8673532 2.26737432 0 0 Z " fill="#303389" transform="translate(304,232)"/>
<path d="M0 0 C2.94887797 0.50842724 5.37371875 1.59306362 8 3 C8 3.99 8 4.98 8 6 C4.54074837 4.7508258 1.85306797 3.32472205 -1 1 C-0.67 0.67 -0.34 0.34 0 0 Z " fill="#FDE6E3" transform="translate(189,106)"/>
<path d="M0 0 C0 1.32 0 2.64 0 4 C-1.98 4 -3.96 4 -6 4 C-6 3.01 -6 2.02 -6 1 C-3 0 -3 0 0 0 Z " fill="#243B7A" transform="translate(72,362)"/>
<path d="M0 0 C3.125 0.375 3.125 0.375 6 1 C4.71034824 2.37562854 3.37310707 3.70766393 2 5 C1.34 5 0.68 5 0 5 C0 4.34 0 3.68 0 3 C-0.66 2.67 -1.32 2.34 -2 2 C-1.34 1.34 -0.68 0.68 0 0 Z " fill="#D91C30" transform="translate(138,312)"/>
<path d="M0 0 C1.90318884 2.85478326 2.4619099 4.41941308 3.125 7.6875 C3.29257813 8.49574219 3.46015625 9.30398437 3.6328125 10.13671875 C3.75398437 10.75160156 3.87515625 11.36648437 4 12 C2.68 11.34 1.36 10.68 0 10 C0.66 10 1.32 10 2 10 C1.505 9.195625 1.505 9.195625 1 8.375 C-0.22699204 5.4608939 -0.14233286 3.13132292 0 0 Z " fill="#F8CED3" transform="translate(148,232)"/>
<path d="M0 0 C6 0 6 0 8 1 C2.375 5 2.375 5 -1 5 C-0.67 3.35 -0.34 1.7 0 0 Z " fill="#CA2730" transform="translate(159,194)"/>
<path d="M0 0 C0.66 0 1.32 0 2 0 C2 0.66 2 1.32 2 2 C2.99 2.33 3.98 2.66 5 3 C4.01 3.33 3.02 3.66 2 4 C2.33 4.99 2.66 5.98 3 7 C2.01 7.33 1.02 7.66 0 8 C0 5.36 0 2.72 0 0 Z " fill="#C3263E" transform="translate(0,0)"/>
<path d="M0 0 C0 1.32 0 2.64 0 4 C-2.64 4 -5.28 4 -8 4 C-8 3.34 -8 2.68 -8 2 C-2.25 0 -2.25 0 0 0 Z " fill="#553561" transform="translate(288,236)"/>
<path d="M0 0 C3.125 -0.1875 3.125 -0.1875 6 0 C6 0.66 6 1.32 6 2 C3.64561267 3.42944945 2.51967567 4.08661261 -0.25 3.625 C-0.8275 3.41875 -1.405 3.2125 -2 3 C-1.34 2.01 -0.68 1.02 0 0 Z " fill="#C22245" transform="translate(282,234)"/>
<path d="M0 0 C0.99 0.33 1.98 0.66 3 1 C3 3.31 3 5.62 3 8 C2.01 8 1.02 8 0 8 C-0.79953138 4.71303767 -1.09658936 3.28976808 0 0 Z " fill="#FADEDD" transform="translate(139,207)"/>
<path d="M0 0 C1.33176248 3.99528745 0.41870859 6.09855137 -1 10 C-1.99 10.66 -2.98 11.32 -4 12 C-3.52309796 10.37433394 -3.04340334 8.74948689 -2.5625 7.125 C-2.29566406 6.22007812 -2.02882813 5.31515625 -1.75390625 4.3828125 C-1 2 -1 2 0 0 Z " fill="#FBD8D5" transform="translate(105,166)"/>
<path d="M0 0 C-1.28524261 0.86380259 -2.57842419 1.71580369 -3.875 2.5625 C-4.59429688 3.03816406 -5.31359375 3.51382812 -6.0546875 4.00390625 C-6.69664063 4.33261719 -7.33859375 4.66132813 -8 5 C-8.66 4.67 -9.32 4.34 -10 4 C-8.34655494 1.30227385 -7.50773114 0.16098792 -4.4375 -0.8125 C-2 -1 -2 -1 0 0 Z " fill="#A22C43" transform="translate(20,389)"/>
<path d="M0 0 C3.3 0.99 6.6 1.98 10 3 C10 3.66 10 4.32 10 5 C5.2482602 4.56802365 3.07999946 3.67230705 0 0 Z " fill="#6E295F" transform="translate(74,42)"/>
<path d="M0 0 C2.31 0.33 4.62 0.66 7 1 C4.87219421 3.34058637 2.88437779 4.70700306 0 6 C0 4.02 0 2.04 0 0 Z " fill="#BF283F" transform="translate(0,394)"/>
<path d="M0 0 C0.66 0.33 1.32 0.66 2 1 C-3.14285714 6.57142857 -3.14285714 6.57142857 -7 7 C-4.78071806 4.09197539 -3.07030857 2.04687238 0 0 Z " fill="#2A3878" transform="translate(91,348)"/>
<path d="M0 0 C1.32 0 2.64 0 4 0 C4 0.66 4 1.32 4 2 C4.99 2 5.98 2 7 2 C7 2.66 7 3.32 7 4 C5.35 4 3.7 4 2 4 C1.34 2.68 0.68 1.36 0 0 Z " fill="#1A417F" transform="translate(134,328)"/>
<path d="M0 0 C-0.5625 1.9375 -0.5625 1.9375 -2 4 C-5.625 4.75 -5.625 4.75 -9 5 C-6.45523312 2.20075644 -3.92372883 0 0 0 Z " fill="#FDDDE0" transform="translate(150,315)"/>
<path d="M0 0 C1.98 0 3.96 0 6 0 C0.85714286 4.42857143 0.85714286 4.42857143 -3 5 C-3 4.34 -3 3.68 -3 3 C-2.01 3 -1.02 3 0 3 C0 2.01 0 1.02 0 0 Z " fill="#BD3544" transform="translate(203,280)"/>
<path d="M0 0 C2.375 0.3125 2.375 0.3125 5 1 C5.66 1.99 6.32 2.98 7 4 C5.35 4 3.7 4 2 4 C1.34 2.68 0.68 1.36 0 0 Z " fill="#D51C33" transform="translate(318,188)"/>
<path d="M0 0 C2.97 0.495 2.97 0.495 6 1 C6 1.66 6 2.32 6 3 C7.32 3 8.64 3 10 3 C10 3.66 10 4.32 10 5 C6.64566891 4.05066101 3.30753495 3.10251165 0 2 C0 1.34 0 0.68 0 0 Z " fill="#552E69" transform="translate(330,188)"/>
<path d="M0 0 C3.1875 0.3125 3.1875 0.3125 6 1 C6 1.66 6 2.32 6 3 C3.03 3 0.06 3 -3 3 C-2.01 2.01 -1.02 1.02 0 0 Z " fill="#BF2637" transform="translate(158,177)"/>
<path d="M0 0 C1.6266848 0.28211877 3.25132896 0.57602375 4.875 0.875 C5.77992188 1.03742188 6.68484375 1.19984375 7.6171875 1.3671875 C10 2 10 2 12 4 C8.35839192 5.21386936 7.66834531 4.6674695 4.3125 3.0625 C3.10013672 2.49208984 3.10013672 2.49208984 1.86328125 1.91015625 C1.24839844 1.60980469 0.63351563 1.30945313 0 1 C0 0.67 0 0.34 0 0 Z " fill="#C5323F" transform="translate(180,106)"/>
<path d="M0 0 C2.375 0.3125 2.375 0.3125 5 1 C5.66 1.99 6.32 2.98 7 4 C5.35 4 3.7 4 2 4 C1.34 2.68 0.68 1.36 0 0 Z " fill="#D51C33" transform="translate(94,60)"/>
<path d="M0 0 C2.97 0.495 2.97 0.495 6 1 C6 1.66 6 2.32 6 3 C7.32 3 8.64 3 10 3 C10 3.66 10 4.32 10 5 C6.64566891 4.05066101 3.30753495 3.10251165 0 2 C0 1.34 0 0.68 0 0 Z " fill="#552E68" transform="translate(106,60)"/>
<path d="M0 0 C1.65 0 3.3 0 5 0 C4.67 1.32 4.34 2.64 4 4 C2.68 4 1.36 4 0 4 C0 2.68 0 1.36 0 0 Z " fill="#2B358F" transform="translate(104,50)"/>
<path d="M0 0 C-5.17578125 3.22265625 -5.17578125 3.22265625 -7 4 C-7.99 3.67 -8.98 3.34 -10 3 C-6.86618053 -0.60389239 -4.59270471 -1.53090157 0 0 Z " fill="#BF3B45" transform="translate(227,271)"/>
<path d="M0 0 C1.23076923 4.92307692 1.23076923 4.92307692 0 8 C-0.99 8.66 -1.98 9.32 -3 10 C-2.01 6.7 -1.02 3.4 0 0 Z " fill="#F8D0CF" transform="translate(87,222)"/>
<path d="M0 0 C0.99 0 1.98 0 3 0 C3 0.66 3 1.32 3 2 C5.97 2.495 5.97 2.495 9 3 C8.67 3.99 8.34 4.98 8 6 C4.63408134 4.55746343 2.48952921 2.66735273 0 0 Z " fill="#F8D3D1" transform="translate(82,201)"/>
<path d="M0 0 C0.66 0 1.32 0 2 0 C2 0.66 2 1.32 2 2 C3.32 2.66 4.64 3.32 6 4 C3.39417629 4.93065133 2.35801776 5.14917407 -0.25 4.0625 C-0.8275 3.711875 -1.405 3.36125 -2 3 C-1.34 2.01 -0.68 1.02 0 0 Z " fill="#DB1E32" transform="translate(138,83)"/>
<path d="M0 0 C2.16874252 0.50603992 3.99967627 0.99983813 6 2 C5.67 3.32 5.34 4.64 5 6 C3.31237149 4.3545622 1.6459651 2.68711423 0 1 C0 0.67 0 0.34 0 0 Z " fill="#2A358F" transform="translate(122,66)"/>
<path d="M0 0 C0 0.66 0 1.32 0 2 C-3 4 -3 4 -7 4 C-7 3.34 -7 2.68 -7 2 C-4 0 -4 0 0 0 Z " fill="#1C407F" transform="translate(141,68)"/>
<path d="M0 0 C3.68754757 0.49831724 5.60490662 1.10067643 8 4 C5.69 3.67 3.38 3.34 1 3 C0.67 2.01 0.34 1.02 0 0 Z " fill="#A72B4B" transform="translate(26,16)"/>
<path d="M0 0 C0.99 0 1.98 0 3 0 C3 0.66 3 1.32 3 2 C3.66 2 4.32 2 5 2 C5 2.66 5 3.32 5 4 C3.02 4 1.04 4 -1 4 C-0.67 2.68 -0.34 1.36 0 0 Z " fill="#CA2421" transform="translate(4,10)"/>
<path d="M0 0 C0.33 0.66 0.66 1.32 1 2 C-0.96466413 3.06775224 -2.96855359 4.06553465 -5 5 C-5.66 4.67 -6.32 4.34 -7 4 C-4.82575883 1.49962266 -3.26954202 0.56371414 0 0 Z " fill="#523160" transform="translate(131,325)"/>
<path d="M0 0 C2.97 0.495 2.97 0.495 6 1 C5.67 1.99 5.34 2.98 5 4 C3.35 4 1.7 4 0 4 C0 2.68 0 1.36 0 0 Z " fill="#C2232C" transform="translate(83,216)"/>
<path d="M0 0 C3.45925163 1.2491742 6.14693203 2.67527795 9 5 C4.545 4.01 4.545 4.01 0 3 C0 2.01 0 1.02 0 0 Z " fill="#B93C42" transform="translate(160,92)"/>
<path d="M0 0 C2.91517292 1.07401108 4.77810176 1.77810176 7 4 C5.02 4.33 3.04 4.66 1 5 C0.67 3.35 0.34 1.7 0 0 Z " fill="#C0333F" transform="translate(148,85)"/>
<path d="M0 0 C2.66666667 0.66666667 5.33333333 1.33333333 8 2 C8 2.66 8 3.32 8 4 C2.25 3.125 2.25 3.125 0 2 C0 1.34 0 0.68 0 0 Z " fill="#C72420" transform="translate(66,42)"/>
</svg>
