<svg width="36" height="27" viewBox="0 0 36 27" fill="none" xmlns="http://www.w3.org/2000/svg">
<mask id="path-1-inside-1_3978_4" fill="white">
<path d="M0 0H36V27H0V0Z"/>
</mask>
<path d="M0 0H36V27H0V0Z" fill="white"/>
<path d="M0 0V-0.613636H-0.613636V0H0ZM36 0H36.6136V-0.613636H36V0ZM36 27V27.6136H36.6136V27H36ZM0 27H-0.613636V27.6136H0V27ZM0 0.613636H36V-0.613636H0V0.613636ZM35.3864 0V27H36.6136V0H35.3864ZM36 26.3864H0V27.6136H36V26.3864ZM0.613636 27V0H-0.613636V27H0.613636Z" fill="#101019" fill-opacity="0.08" mask="url(#path-1-inside-1_3978_4)"/>
<path d="M17.9998 19.2999C21.4792 19.2999 24.2998 16.4793 24.2998 12.9999C24.2998 9.52047 21.4792 6.69986 17.9998 6.69986C14.5204 6.69986 11.6998 9.52047 11.6998 12.9999C11.6998 16.4793 14.5204 19.2999 17.9998 19.2999Z" fill="#F93939"/>
</svg>
