<svg width="36" height="27" viewBox="0 0 36 27" fill="none" xmlns="http://www.w3.org/2000/svg">
<mask id="path-1-inside-1_3978_8" fill="white">
<path d="M0 0H36V27H0V0Z"/>
</mask>
<path d="M0 0H36V27H0V0Z" fill="#244AA5"/>
<path d="M0 0V-0.613636H-0.613636V0H0ZM36 0H36.6136V-0.613636H36V0ZM36 27V27.6136H36.6136V27H36ZM0 27H-0.613636V27.6136H0V27ZM0 0.613636H36V-0.613636H0V0.613636ZM35.3864 0V27H36.6136V0H35.3864ZM36 26.3864H0V27.6136H36V26.3864ZM0.613636 27V0H-0.613636V27H0.613636Z" fill="#101019" fill-opacity="0.08" mask="url(#path-1-inside-1_3978_8)"/>
<path d="M20.1989 5.02857C20.1166 5.02857 20.0443 4.97381 20.022 4.89456L19.9229 4.54154C19.8726 4.36256 19.6187 4.36297 19.5691 4.54211L19.4714 4.89399C19.4494 4.97352 19.377 5.02857 19.2944 5.02857H18.9197C18.7484 5.02857 18.6704 5.24247 18.8015 5.35279L19.1492 5.64534C19.2044 5.69175 19.2273 5.76615 19.2078 5.83556L19.087 6.26555C19.0381 6.43985 19.2442 6.57236 19.3824 6.45549L19.6267 6.24906C19.695 6.1913 19.795 6.19118 19.8635 6.24878L20.1123 6.45815C20.2507 6.57456 20.4563 6.44202 20.4074 6.26793L20.286 5.83556C20.2665 5.76615 20.2894 5.69175 20.3446 5.64534L20.6923 5.35279C20.8234 5.24247 20.7454 5.02857 20.574 5.02857H20.1989Z" fill="white"/>
<path d="M23.4004 5.68109C23.3182 5.68109 23.246 5.62643 23.2237 5.54727L23.1245 5.19584C23.0741 5.01711 22.8207 5.01752 22.7708 5.19641L22.6733 5.5467C22.6511 5.62614 22.5788 5.68109 22.4963 5.68109H22.1215C21.9501 5.68109 21.8721 5.895 22.0032 6.00532L22.351 6.29787C22.4061 6.34428 22.429 6.41868 22.4095 6.48809L22.2888 6.91807C22.2398 7.09237 22.4459 7.22489 22.5842 7.10802L22.8284 6.90158C22.8967 6.84382 22.9967 6.84371 23.0652 6.90131L23.3141 7.11068C23.4524 7.22709 23.658 7.09455 23.6091 6.92046L23.4877 6.48809C23.4682 6.41868 23.4911 6.34428 23.5463 6.29787L23.894 6.00532C24.0251 5.895 23.9471 5.68109 23.7758 5.68109H23.4004Z" fill="white"/>
<path d="M26.4548 6.96806C26.3724 6.96806 26.3 6.91311 26.2779 6.83367L26.1803 6.48337C26.1305 6.30449 25.877 6.30408 25.8266 6.4828L25.7275 6.83424C25.7052 6.9134 25.633 6.96806 25.5507 6.96806H25.1754C25.004 6.96806 24.926 7.18197 25.0571 7.29229L25.4049 7.58484C25.46 7.63125 25.483 7.70565 25.4635 7.77506L25.342 8.20743C25.2931 8.38152 25.4987 8.51406 25.6371 8.39765L25.886 8.18828C25.9544 8.13068 26.0544 8.13079 26.1228 8.18855L26.367 8.39499C26.5053 8.51186 26.7113 8.37934 26.6624 8.20504L26.5416 7.77506C26.5221 7.70565 26.545 7.63125 26.6002 7.58484L26.9479 7.29229C27.0791 7.18197 27.0011 6.96806 26.8297 6.96806H26.4548Z" fill="white"/>
<path d="M16.9471 5.02857C16.8646 5.02857 16.7922 4.97352 16.7701 4.89399L16.6725 4.54211C16.6228 4.36297 16.369 4.36256 16.3187 4.54154L16.2195 4.89456C16.1973 4.97381 16.125 5.02857 16.0427 5.02857H15.6675C15.4962 5.02857 15.4182 5.24247 15.5493 5.35279L15.897 5.64534C15.9522 5.69175 15.9751 5.76615 15.9556 5.83556L15.8342 6.26793C15.7853 6.44202 15.9909 6.57456 16.1292 6.45815L16.3781 6.24878C16.4466 6.19118 16.5466 6.1913 16.6149 6.24906L16.8591 6.45549C16.9974 6.57236 17.2035 6.43985 17.1545 6.26555L17.0338 5.83556C17.0143 5.76615 17.0372 5.69175 17.0924 5.64534L17.4401 5.35279C17.5712 5.24247 17.4932 5.02857 17.3218 5.02857H16.9471Z" fill="white"/>
<path d="M13.7455 5.68109C13.663 5.68109 13.5906 5.62614 13.5685 5.5467L13.4709 5.19641C13.4211 5.01752 13.1676 5.01711 13.1172 5.19584L13.0181 5.54727C12.9958 5.62643 12.9236 5.68109 12.8413 5.68109H12.466C12.2946 5.68109 12.2166 5.895 12.3478 6.00532L12.6955 6.29787C12.7507 6.34428 12.7736 6.41868 12.7541 6.48809L12.6326 6.92046C12.5837 7.09455 12.7894 7.22709 12.9277 7.11068L13.1766 6.90131C13.2451 6.84371 13.3451 6.84382 13.4134 6.90158L13.6576 7.10802C13.7959 7.22489 14.002 7.09237 13.953 6.91807L13.8322 6.48809C13.8127 6.41868 13.8357 6.34428 13.8908 6.29787L14.2386 6.00532C14.3697 5.895 14.2917 5.68109 14.1203 5.68109H13.7455Z" fill="white"/>
<path d="M10.6909 6.96806C10.6086 6.96806 10.5364 6.9134 10.5141 6.83424L10.415 6.48281C10.3646 6.30408 10.1111 6.30449 10.0613 6.48338L9.96369 6.83367C9.94157 6.91311 9.86921 6.96806 9.78675 6.96806H9.41188C9.24052 6.96806 9.16251 7.18197 9.29364 7.29229L9.64138 7.58484C9.69655 7.63125 9.71946 7.70565 9.69996 7.77506L9.57919 8.20504C9.53023 8.37934 9.73633 8.51186 9.87459 8.39499L10.1188 8.18855C10.1871 8.13079 10.2872 8.13068 10.3556 8.18828L10.6045 8.39765C10.7429 8.51406 10.9485 8.38152 10.8996 8.20743L10.7781 7.77506C10.7586 7.70565 10.7815 7.63125 10.8367 7.58484L11.1844 7.29229C11.3156 7.18197 11.2376 6.96806 11.0662 6.96806H10.6909Z" fill="white"/>
<path d="M16.4807 10.5714C16.2853 10.4151 16.7934 10.0652 16.9518 9.98601C17.1369 9.8009 17.5068 9.76796 17.7565 9.79294C17.9776 9.81504 18.084 9.89062 18.0299 10.125C17.9603 10.4267 17.9228 10.6237 18.0639 10.9159C18.243 11.2869 18.6695 11.4073 19.0617 11.4595C19.3208 11.4941 19.605 11.51 19.8401 11.6325C19.9503 11.6899 20.119 11.8141 20.1213 11.9507C20.1276 12.336 20.0551 12.7254 20.4595 12.9192C20.9252 13.1423 21.4649 13.5283 21.7338 13.9834C21.9282 14.3124 21.7059 14.5522 21.7338 14.9009C21.7502 15.1061 22.0897 15.2336 22.2343 15.3009C22.8036 15.5663 23.3785 15.8325 23.9858 15.9991C24.1779 16.0518 24.9995 16.1063 25.0145 16.4362C25.0201 16.5591 25.0262 16.694 25.0114 16.8162C24.9888 17.0029 24.8801 17.1657 24.8492 17.3506C24.7504 17.9435 23.8888 17.8712 23.5101 18.2295C23.3446 18.386 23.3543 18.6944 23.2907 18.8983C23.2572 19.0057 23.2529 19.2543 23.1734 19.3339C23.0045 19.5027 22.7086 19.58 22.503 19.6953C22.2149 19.8569 21.9349 20.0244 21.7029 20.2622C21.6145 20.3528 21.468 20.5566 21.3229 20.5016C21.1201 20.4246 20.9241 20.2743 20.7422 20.1587C20.5219 20.0187 20.2581 20.0981 20.0131 20.1386C19.6342 20.2012 19.2733 20.3227 18.901 20.412C18.5798 20.489 18.259 20.5332 17.9434 20.6329C17.7814 20.684 17.6719 20.8249 17.5294 20.9093C17.2665 21.0652 16.7738 21.2271 16.5007 21.0236C16.2914 20.8676 16.0902 20.7709 15.9679 20.5263C15.9169 20.4243 15.9084 20.3026 15.8953 20.1911C15.8457 19.7702 15.8537 19.4321 15.506 19.1222C14.8576 18.5443 14.0983 18.1065 13.4517 17.5205C13.0221 17.1311 12.6015 16.7352 12.2624 16.2632C12.0792 16.0083 12.0307 15.8421 12.0307 15.5403C12.0307 15.3387 12.1666 15.2264 12.3304 15.1079C12.6395 14.884 13.0371 14.8524 13.3899 14.7433C13.9795 14.5612 14.5124 14.2526 15.0412 13.9464L15.0627 13.934C15.3873 13.746 15.679 13.5409 15.9787 13.3161C16.2462 13.1155 16.4001 12.8091 16.5208 12.5037C16.631 12.2251 16.769 11.9758 16.8421 11.6835C16.9045 11.4339 17.1108 11.3082 16.9857 11.0425C16.869 10.7943 16.6906 10.7393 16.4807 10.5714Z" fill="#D0A650"/>
</svg>
