<svg width="64" height="48" viewBox="0 0 64 48" fill="none" xmlns="http://www.w3.org/2000/svg">
<g clip-path="url(#clip0_4911_21)">
<mask id="path-1-inside-1_4911_21" fill="white">
<path d="M0 4C0 1.79086 1.79086 0 4 0H60C62.2091 0 64 1.79086 64 4V44C64 46.2091 62.2091 48 60 48H4C1.79086 48 0 46.2091 0 44V4Z"/>
</mask>
<path d="M0 4C0 1.79086 1.79086 0 4 0H60C62.2091 0 64 1.79086 64 4V44C64 46.2091 62.2091 48 60 48H4C1.79086 48 0 46.2091 0 44V4Z" fill="#151515"/>
<rect width="64" height="48" fill="#FEDD00"/>
<g clip-path="url(#clip1_4911_21)">
<path d="M0 4C0 1.79086 1.79086 0 4 0H32V24H0V4Z" fill="#012169"/>
<path d="M-1.59998 0L33.6 24L-1.59998 0ZM33.6 0L-1.59998 24L33.6 0Z" fill="black"/>
<path d="M-1.59998 0L33.6 24M33.6 0L-1.59998 24" stroke="white" stroke-width="5"/>
<mask id="mask0_4911_21" style="mask-type:luminance" maskUnits="userSpaceOnUse" x="-2" y="0" width="42" height="32">
<path d="M-1.59998 0V12H39.4667V24H33.6L-1.59998 0ZM-1.59998 24V32H16V0H33.6L-1.59998 24Z" fill="white"/>
</mask>
<g mask="url(#mask0_4911_21)">
<path d="M-1.59998 0L33.6 24L-1.59998 0ZM33.6 0L-1.59998 24L33.6 0Z" fill="black"/>
<path d="M-1.59998 0L33.6 24M33.6 0L-1.59998 24" stroke="#C8102E" stroke-width="3.33333"/>
</g>
<path d="M16 0V32V0ZM-1.59998 12H39.4667H-1.59998Z" fill="black"/>
<path d="M16 0V32M-1.59998 12H39.4667" stroke="white" stroke-width="8.33333"/>
<path d="M16 0V32V0ZM-1.59998 12H39.4667H-1.59998Z" fill="black"/>
<path d="M16 0V32M-1.59998 12H39.4667" stroke="#C8102E" stroke-width="5"/>
<path d="M15.9999 14.6884C17.6536 14.6884 18.9942 13.3173 18.9942 11.626C18.9942 9.93475 17.6536 8.56369 15.9999 8.56369C14.3462 8.56369 13.0056 9.93475 13.0056 11.626C13.0056 13.3173 14.3462 14.6884 15.9999 14.6884Z" fill="#012169"/>
<path d="M15.9999 8.56369L17.7599 14.1035L13.1522 10.6797H18.8476L14.2399 14.1035" fill="#FEDD00"/>
<path d="M5.73331 10L6.76781 13.2563L4.05945 11.2438H7.40717L4.69881 13.2563" fill="#FEDD00"/>
<path d="M26.2666 10L27.3011 13.2563L24.5928 11.2438H27.9405L25.2321 13.2563" fill="#FEDD00"/>
<path d="M16 16.0001L17.0345 19.2563L14.3262 17.2438H17.6739L14.9655 19.2563" fill="#FEDD00"/>
<path d="M16 4L17.0345 7.25623L14.3262 5.24377H17.6739L14.9655 7.25623" fill="#FEDD00"/>
</g>
</g>
<path d="M4 0V1H60V0V-1H4V0ZM64 4H63V44H64H65V4H64ZM60 48V47H4V48V49H60V48ZM0 44H1V4H0H-1V44H0ZM4 48V47C2.34315 47 1 45.6569 1 44H0H-1C-1 46.7614 1.23858 49 4 49V48ZM64 44H63C63 45.6569 61.6569 47 60 47V48V49C62.7614 49 65 46.7614 65 44H64ZM60 0V1C61.6569 1 63 2.34315 63 4H64H65C65 1.23858 62.7614 -1 60 -1V0ZM4 0V-1C1.23858 -1 -1 1.23858 -1 4H0H1C1 2.34315 2.34315 1 4 1V0Z" fill="#101019" fill-opacity="0.08" mask="url(#path-1-inside-1_4911_21)"/>
<defs>
<clipPath id="clip0_4911_21">
<path d="M0 4C0 1.79086 1.79086 0 4 0H60C62.2091 0 64 1.79086 64 4V44C64 46.2091 62.2091 48 60 48H4C1.79086 48 0 46.2091 0 44V4Z" fill="white"/>
</clipPath>
<clipPath id="clip1_4911_21">
<path d="M0 4C0 1.79086 1.79086 0 4 0H32V24H0V4Z" fill="white"/>
</clipPath>
</defs>
</svg>
