<?xml version="1.0" encoding="UTF-8"?>
<svg version="1.1" xmlns="http://www.w3.org/2000/svg" width="800" height="400">
<path d="M0 0 C264 0 528 0 800 0 C800 132 800 264 800 400 C536 400 272 400 0 400 C0 268 0 136 0 0 Z " fill="#ED3340" transform="translate(0,0)"/>
<path d="M0 0 C264 0 528 0 800 0 C800 43.89 800 87.78 800 133 C536 133 272 133 0 133 C0 89.11 0 45.22 0 0 Z " fill="#509E2F" transform="translate(0,267)"/>
<path d="M0 0 C264 0 528 0 800 0 C800 43.89 800 87.78 800 133 C536 133 272 133 0 133 C0 89.11 0 45.22 0 0 Z " fill="#00B5E2" transform="translate(0,0)"/>
<path d="M0 0 C2.07238072 1.83703149 4.06194468 3.69560056 5.9765625 5.6953125 C2.52147273 5.6953125 0.87455722 4.82606874 -2.2109375 3.3203125 C-14.09377628 -2.14858201 -26.74789122 -3.37774752 -39.40625 0.66015625 C-55.38736065 6.9810433 -64.47568726 16.98625067 -71.21875 32.43359375 C-74.78175139 46.87585666 -72.83839829 62.06270354 -65.2265625 74.671875 C-58.17904436 85.13039192 -48.10345355 92.69351173 -35.8359375 96.0078125 C-21.40310311 98.62965014 -8.4908913 96.17578478 3.9765625 88.6953125 C4.6365625 89.0253125 5.2965625 89.3553125 5.9765625 89.6953125 C-5.94483451 102.14654938 -20.5056785 107.54352042 -37.4609375 108.0078125 C-54.56405651 107.6968467 -69.11819385 100.93248674 -81.0234375 88.6953125 C-81.57257813 88.17839844 -82.12171875 87.66148437 -82.6875 87.12890625 C-93.07373897 76.49273105 -96.9428903 61.61131408 -97.3359375 47.2578125 C-97.0249717 30.15469349 -90.26061174 15.60055615 -78.0234375 3.6953125 C-77.50652344 3.14617187 -76.98960937 2.59703125 -76.45703125 2.03125 C-55.94508224 -17.99869499 -21.84124191 -16.64900869 0 0 Z " fill="#FEFBFB" transform="translate(417.0234375,152.3046875)"/>
<path d="M0 0 C2.71340928 3.20322242 3.93064936 6.26274969 5.1875 10.25 C5.53167969 11.32765625 5.87585938 12.4053125 6.23046875 13.515625 C6.48441406 14.33546875 6.73835938 15.1553125 7 16 C11.30812389 14.65012118 15.40435703 13.30323642 19.4375 11.25 C20.283125 10.8375 21.12875 10.425 22 10 C22.66 10.33 23.32 10.66 24 11 C21.36 16.28 18.72 21.56 16 27 C17.711875 27.45375 19.42375 27.9075 21.1875 28.375 C24.91415112 29.36278704 28.44496838 30.50519694 32 32 C32 32.66 32 33.32 32 34 C29.70967689 34.83719383 27.41789043 35.6698929 25.125 36.5 C24.47402344 36.73847656 23.82304687 36.97695312 23.15234375 37.22265625 C18.2265625 39 18.2265625 39 16 39 C18.64 44.28 21.28 49.56 24 55 C23.01 55.495 23.01 55.495 22 56 C19.79946704 55.09951875 17.63693262 54.10496381 15.5 53.0625 C11.42404658 50.83861735 11.42404658 50.83861735 7 50 C6.66226563 50.99902344 6.32453125 51.99804688 5.9765625 53.02734375 C5.52642664 54.33086217 5.07588475 55.63424043 4.625 56.9375 C4.29242188 57.9265332 4.29242188 57.9265332 3.953125 58.93554688 C2.2265625 63.88671875 2.2265625 63.88671875 0 65 C-0.83719383 62.70967689 -1.6698929 60.41789043 -2.5 58.125 C-2.73847656 57.47402344 -2.97695313 56.82304687 -3.22265625 56.15234375 C-5 51.2265625 -5 51.2265625 -5 49 C-6.05960937 49.5053125 -7.11921875 50.010625 -8.2109375 50.53125 C-9.59886314 51.18770131 -10.98688919 51.84394033 -12.375 52.5 C-13.07367188 52.83386719 -13.77234375 53.16773438 -14.4921875 53.51171875 C-19.7734375 56 -19.7734375 56 -22 56 C-21.37954537 51.76677156 -19.89476441 48.47709705 -17.9375 44.6875 C-17.11572266 43.08455078 -17.11572266 43.08455078 -16.27734375 41.44921875 C-15.85582031 40.64097656 -15.43429687 39.83273438 -15 39 C-16.05767578 38.81630859 -16.05767578 38.81630859 -17.13671875 38.62890625 C-20.15503183 37.96594799 -22.91889442 37.01824425 -25.8125 35.9375 C-26.78832031 35.57527344 -27.76414062 35.21304688 -28.76953125 34.83984375 C-29.50558594 34.56269531 -30.24164063 34.28554687 -31 34 C-31 33.34 -31 32.68 -31 32 C-28.89828133 31.1605118 -26.79353375 30.32860344 -24.6875 29.5 C-23.51574219 29.0359375 -22.34398437 28.571875 -21.13671875 28.09375 C-18 27 -18 27 -15 27 C-15.77537109 25.41058594 -15.77537109 25.41058594 -16.56640625 23.7890625 C-17.23218567 22.4012406 -17.89752771 21.01320882 -18.5625 19.625 C-18.90474609 18.92632812 -19.24699219 18.22765625 -19.59960938 17.5078125 C-20.46030712 15.69947784 -21.23652436 13.85148044 -22 12 C-21.67 11.34 -21.34 10.68 -21 10 C-15.72 12.31 -10.44 14.62 -5 17 C-4.731875 15.68 -4.46375 14.36 -4.1875 13 C-3.18827949 8.46397021 -1.72361286 4.30903216 0 0 Z " fill="#FEFAFA" transform="translate(446,167)"/>
</svg>
