<?xml version="1.0" encoding="UTF-8"?>
<svg version="1.1" xmlns="http://www.w3.org/2000/svg" width="630" height="360">
<path d="M0 0 C207.9 0 415.8 0 630 0 C630 118.8 630 237.6 630 360 C422.1 360 214.2 360 0 360 C0 241.2 0 122.4 0 0 Z " fill="#FEFDFD" transform="translate(0,0)"/>
<path d="M0 0 C2.64 0 5.28 0 8 0 C8 0.99 8 1.98 8 3 C16.58 3 25.16 3 34 3 C34 2.01 34 1.02 34 0 C34.66 0 35.32 0 36 0 C36 0.99 36 1.98 36 3 C44.58 3 53.16 3 62 3 C62 2.01 62 1.02 62 0 C62.66 0 63.32 0 64 0 C64 0.99 64 1.98 64 3 C72.58 3 81.16 3 90 3 C90 2.01 90 1.02 90 0 C90.66 0 91.32 0 92 0 C92 0.99 92 1.98 92 3 C100.58 3 109.16 3 118 3 C118 2.01 118 1.02 118 0 C118.66 0 119.32 0 120 0 C120 0.99 120 1.98 120 3 C128.58 3 137.16 3 146 3 C146 2.01 146 1.02 146 0 C146.66 0 147.32 0 148 0 C148 0.99 148 1.98 148 3 C156.58 3 165.16 3 174 3 C174 2.01 174 1.02 174 0 C174.66 0 175.32 0 176 0 C176 0.99 176 1.98 176 3 C184.58 3 193.16 3 202 3 C202 2.01 202 1.02 202 0 C202.66 0 203.32 0 204 0 C204 0.99 204 1.98 204 3 C212.58 3 221.16 3 230 3 C230 2.01 230 1.02 230 0 C230.66 0 231.32 0 232 0 C232 0.99 232 1.98 232 3 C240.58 3 249.16 3 258 3 C258 2.01 258 1.02 258 0 C258.66 0 259.32 0 260 0 C260 0.99 260 1.98 260 3 C268.58 3 277.16 3 286 3 C286 2.01 286 1.02 286 0 C286.66 0 287.32 0 288 0 C288 0.99 288 1.98 288 3 C296.58 3 305.16 3 314 3 C314 2.01 314 1.02 314 0 C314.66 0 315.32 0 316 0 C316 0.99 316 1.98 316 3 C324.58 3 333.16 3 342 3 C342 2.01 342 1.02 342 0 C342.66 0 343.32 0 344 0 C344 0.99 344 1.98 344 3 C352.58 3 361.16 3 370 3 C370 2.01 370 1.02 370 0 C370.66 0 371.32 0 372 0 C372 0.99 372 1.98 372 3 C380.58 3 389.16 3 398 3 C398 2.01 398 1.02 398 0 C398.66 0 399.32 0 400 0 C400 0.99 400 1.98 400 3 C408.58 3 417.16 3 426 3 C426 2.01 426 1.02 426 0 C426.66 0 427.32 0 428 0 C428 0.99 428 1.98 428 3 C436.58 3 445.16 3 454 3 C454 2.01 454 1.02 454 0 C454.66 0 455.32 0 456 0 C456 0.99 456 1.98 456 3 C464.58 3 473.16 3 482 3 C482 2.01 482 1.02 482 0 C482.66 0 483.32 0 484 0 C484 0.99 484 1.98 484 3 C492.58 3 501.16 3 510 3 C510 2.01 510 1.02 510 0 C510.66 0 511.32 0 512 0 C512 0.99 512 1.98 512 3 C520.58 3 529.16 3 538 3 C538 2.01 538 1.02 538 0 C538.66 0 539.32 0 540 0 C540 0.99 540 1.98 540 3 C548.58 3 557.16 3 566 3 C566 2.01 566 1.02 566 0 C566.66 0 567.32 0 568 0 C568 0.99 568 1.98 568 3 C576.58 3 585.16 3 594 3 C594 2.01 594 1.02 594 0 C594.66 0 595.32 0 596 0 C596 0.99 596 1.98 596 3 C604.58 3 613.16 3 622 3 C622 2.01 622 1.02 622 0 C624.64 0 627.28 0 630 0 C630 39.6 630 79.2 630 120 C422.1 120 214.2 120 0 120 C0 80.4 0 40.8 0 0 Z " fill="#DA0101" transform="translate(0,240)"/>
<path d="M0 0 C207.9 0 415.8 0 630 0 C630 39.6 630 79.2 630 120 C627.36 120 624.72 120 622 120 C622 119.01 622 118.02 622 117 C613.42 117 604.84 117 596 117 C596 117.99 596 118.98 596 120 C595.34 120 594.68 120 594 120 C594 119.01 594 118.02 594 117 C585.42 117 576.84 117 568 117 C568 117.99 568 118.98 568 120 C567.34 120 566.68 120 566 120 C566 119.01 566 118.02 566 117 C557.42 117 548.84 117 540 117 C540 117.99 540 118.98 540 120 C539.34 120 538.68 120 538 120 C538 119.01 538 118.02 538 117 C529.42 117 520.84 117 512 117 C512 117.99 512 118.98 512 120 C511.34 120 510.68 120 510 120 C510 119.01 510 118.02 510 117 C501.42 117 492.84 117 484 117 C484 117.99 484 118.98 484 120 C483.34 120 482.68 120 482 120 C482 119.01 482 118.02 482 117 C473.42 117 464.84 117 456 117 C456 117.99 456 118.98 456 120 C455.34 120 454.68 120 454 120 C454 119.01 454 118.02 454 117 C445.42 117 436.84 117 428 117 C428 117.99 428 118.98 428 120 C427.34 120 426.68 120 426 120 C426 119.01 426 118.02 426 117 C417.42 117 408.84 117 400 117 C400 117.99 400 118.98 400 120 C399.34 120 398.68 120 398 120 C398 119.01 398 118.02 398 117 C389.42 117 380.84 117 372 117 C372 117.99 372 118.98 372 120 C371.34 120 370.68 120 370 120 C370 119.01 370 118.02 370 117 C361.42 117 352.84 117 344 117 C344 117.99 344 118.98 344 120 C343.34 120 342.68 120 342 120 C342 119.01 342 118.02 342 117 C333.42 117 324.84 117 316 117 C316 117.99 316 118.98 316 120 C315.34 120 314.68 120 314 120 C314 119.01 314 118.02 314 117 C305.42 117 296.84 117 288 117 C288 117.99 288 118.98 288 120 C287.34 120 286.68 120 286 120 C286 119.01 286 118.02 286 117 C277.42 117 268.84 117 260 117 C260 117.99 260 118.98 260 120 C259.34 120 258.68 120 258 120 C258 119.01 258 118.02 258 117 C249.42 117 240.84 117 232 117 C232 117.99 232 118.98 232 120 C231.34 120 230.68 120 230 120 C230 119.01 230 118.02 230 117 C221.42 117 212.84 117 204 117 C204 117.99 204 118.98 204 120 C203.34 120 202.68 120 202 120 C202 119.01 202 118.02 202 117 C193.42 117 184.84 117 176 117 C176 117.99 176 118.98 176 120 C175.34 120 174.68 120 174 120 C174 119.01 174 118.02 174 117 C165.42 117 156.84 117 148 117 C148 117.99 148 118.98 148 120 C147.34 120 146.68 120 146 120 C146 119.01 146 118.02 146 117 C137.42 117 128.84 117 120 117 C120 117.99 120 118.98 120 120 C119.34 120 118.68 120 118 120 C118 119.01 118 118.02 118 117 C109.42 117 100.84 117 92 117 C92 117.99 92 118.98 92 120 C91.34 120 90.68 120 90 120 C90 119.01 90 118.02 90 117 C81.42 117 72.84 117 64 117 C64 117.99 64 118.98 64 120 C63.34 120 62.68 120 62 120 C62 119.01 62 118.02 62 117 C53.42 117 44.84 117 36 117 C36 117.99 36 118.98 36 120 C35.34 120 34.68 120 34 120 C34 119.01 34 118.02 34 117 C25.42 117 16.84 117 8 117 C8 117.99 8 118.98 8 120 C5.36 120 2.72 120 0 120 C0 80.4 0 40.8 0 0 Z " fill="#259F41" transform="translate(0,0)"/>
<path d="M0 0 C2.46800047 1.15173355 4.04783565 2.04783565 6 4 C6.24050903 6.4803772 6.24050903 6.4803772 6.22705078 9.64306641 C6.22689972 10.82413971 6.22674866 12.00521301 6.22659302 13.22207642 C6.21627045 14.50230682 6.20594788 15.78253723 6.1953125 17.1015625 C6.1924826 18.40829926 6.18965271 19.71503601 6.18673706 21.06137085 C6.17909776 24.53682081 6.1594469 28.01210383 6.1373291 31.48748779 C6.11687696 35.03330222 6.10773671 38.5791436 6.09765625 42.125 C6.07620116 49.08340195 6.04206173 56.04169296 6 63 C7.29391966 61.73000043 8.58444997 60.45654704 9.87353516 59.18164062 C10.59256012 58.47285767 11.31158508 57.76407471 12.05239868 57.03381348 C14.29000279 54.69716 15.8809597 52.3671756 17.375 49.5 C17.83648437 48.6440625 18.29796875 47.788125 18.7734375 46.90625 C21.61808041 40.166077 22.38667282 33.86215025 22.375 26.625 C22.37628906 25.79226562 22.37757813 24.95953125 22.37890625 24.1015625 C22.2818875 18.45683529 21.48939141 13.89603885 18.875 8.8125 C18 7 18 7 18 4 C27.07064984 14.77776653 31.12482934 24.75216164 30 39 C27.74470908 52.37884445 20.67043855 61.99717108 10 70 C13.63 70.99 17.26 71.98 21 73 C21 73.33 21 73.66 21 74 C15.39 74 9.78 74 4 74 C3.67 75.32 3.34 76.64 3 78 C1.68 78 0.36 78 -1 78 C-1.33 76.68 -1.66 75.36 -2 74 C-2.81791016 74.24169922 -2.81791016 74.24169922 -3.65234375 74.48828125 C-6.33942749 75.07398503 -8.81314482 75.1687969 -11.5625 75.1875 C-12.51253906 75.20167969 -13.46257812 75.21585937 -14.44140625 75.23046875 C-17 75 -17 75 -20 73 C-16.04 72.01 -12.08 71.02 -8 70 C-8.79664063 69.33355469 -9.59328125 68.66710937 -10.4140625 67.98046875 C-19.66349462 60.02531581 -26.6399507 51.59142414 -28 39 C-28.8560685 27.42446505 -26.54156591 17.67639946 -20 8 C-17.125 5.3125 -17.125 5.3125 -15 4 C-15.268125 4.66 -15.53625 5.32 -15.8125 6 C-16.204375 6.99 -16.59625 7.98 -17 9 C-17.50917969 10.17046875 -18.01835937 11.3409375 -18.54296875 12.546875 C-20.36376348 17.44106396 -20.53671261 22.06740388 -20.5 27.25 C-20.49250732 28.63771606 -20.49250732 28.63771606 -20.48486328 30.0534668 C-20.12843333 44.08082905 -13.64897558 53.39915144 -4 63 C-4.00888245 62.26972595 -4.01776489 61.5394519 -4.0269165 60.78704834 C-4.10710091 53.90122939 -4.16798393 47.01548032 -4.20724869 40.12931442 C-4.22811412 36.58909928 -4.25641126 33.04927026 -4.30175781 29.50927734 C-4.35357738 25.43843909 -4.37295369 21.36800573 -4.390625 17.296875 C-4.41127014 16.02696716 -4.43191528 14.75705933 -4.45318604 13.44866943 C-4.45348816 12.26774719 -4.45379028 11.08682495 -4.45410156 9.87011719 C-4.46298401 8.83087097 -4.47186646 7.79162476 -4.48101807 6.72088623 C-3.88235699 3.33455044 -2.60423458 2.15712178 0 0 Z " fill="#DB0808" transform="translate(314,145)"/>
<path d="M0 0 C0.66 0.33 1.32 0.66 2 1 C1.49210937 1.43828125 0.98421875 1.8765625 0.4609375 2.328125 C-7.88962325 10.02190007 -13.25457181 20.13833288 -14.3359375 31.54296875 C-14.43784936 41.05134512 -13.43688109 49.51679201 -8.30078125 57.7109375 C-7.87152344 58.46632812 -7.44226563 59.22171875 -7 60 C-7.33 60.66 -7.66 61.32 -8 62 C-15.27002803 56.47477869 -20.97272548 49.37008504 -22.75 40.1875 C-24.0852875 28.50373441 -22.25627376 19.21297747 -14.84765625 9.890625 C-10.69412312 5.64049808 -5.6565828 1.8855276 0 0 Z " fill="#DB0C0C" transform="translate(293,147)"/>
<path d="M0 0 C8.19810657 2.10207861 14.97402997 6.83063888 19.71484375 13.81640625 C24.9766663 22.75670658 26.46456185 31.2172457 24.52734375 41.51171875 C21.92054813 50.45599355 16.85896222 57.12744343 9 62 C10.0033896 59.48477674 11.01147831 56.97188896 12.03515625 54.46484375 C12.37417969 53.63082031 12.71320313 52.79679687 13.0625 51.9375 C13.40410156 51.10089844 13.74570312 50.26429688 14.09765625 49.40234375 C17.78129765 39.59524652 16.95241641 28.38618037 13.265625 18.71484375 C9.95361148 11.6103703 5.19233981 5.8104755 0 0 Z " fill="#DB0B0B" transform="translate(335,147)"/>
<path d="M0 0 C0.99 0 1.98 0 3 0 C3 4.95 3 9.9 3 15 C-1.95 15 -6.9 15 -12 15 C-12 13.02 -12 11.04 -12 9 C-14.64 9 -17.28 9 -20 9 C-20 9.99 -20 10.98 -20 12 C-18.02 12 -16.04 12 -14 12 C-14 12.99 -14 13.98 -14 15 C-16.97 15 -19.94 15 -23 15 C-23 12.03 -23 9.06 -23 6 C-19.04 6 -15.08 6 -11 6 C-11 4.35 -11 2.7 -11 1 C-10.34 1 -9.68 1 -9 1 C-9 4.63 -9 8.26 -9 12 C-8.01 12 -7.02 12 -6 12 C-6 8.37 -6 4.74 -6 1 C-5.01 1 -4.02 1 -3 1 C-3 4.63 -3 8.26 -3 12 C-2.01 12 -1.02 12 0 12 C0 8.04 0 4.08 0 0 Z " fill="#F9DCDC" transform="translate(619,245)"/>
<path d="M0 0 C0.99 0 1.98 0 3 0 C3 4.95 3 9.9 3 15 C-1.95 15 -6.9 15 -12 15 C-12 13.02 -12 11.04 -12 9 C-14.64 9 -17.28 9 -20 9 C-20 9.99 -20 10.98 -20 12 C-18.02 12 -16.04 12 -14 12 C-14 12.99 -14 13.98 -14 15 C-16.97 15 -19.94 15 -23 15 C-23 12.03 -23 9.06 -23 6 C-19.04 6 -15.08 6 -11 6 C-11 4.35 -11 2.7 -11 1 C-10.34 1 -9.68 1 -9 1 C-9 4.63 -9 8.26 -9 12 C-8.01 12 -7.02 12 -6 12 C-6 8.37 -6 4.74 -6 1 C-5.01 1 -4.02 1 -3 1 C-3 4.63 -3 8.26 -3 12 C-2.01 12 -1.02 12 0 12 C0 8.04 0 4.08 0 0 Z " fill="#F9DCDC" transform="translate(563,245)"/>
<path d="M0 0 C0.99 0 1.98 0 3 0 C3 4.95 3 9.9 3 15 C-1.95 15 -6.9 15 -12 15 C-12 13.02 -12 11.04 -12 9 C-14.64 9 -17.28 9 -20 9 C-20 9.99 -20 10.98 -20 12 C-18.02 12 -16.04 12 -14 12 C-14 12.99 -14 13.98 -14 15 C-16.97 15 -19.94 15 -23 15 C-23 12.03 -23 9.06 -23 6 C-19.04 6 -15.08 6 -11 6 C-11 4.35 -11 2.7 -11 1 C-10.34 1 -9.68 1 -9 1 C-9 4.63 -9 8.26 -9 12 C-8.01 12 -7.02 12 -6 12 C-6 8.37 -6 4.74 -6 1 C-5.01 1 -4.02 1 -3 1 C-3 4.63 -3 8.26 -3 12 C-2.01 12 -1.02 12 0 12 C0 8.04 0 4.08 0 0 Z " fill="#F9DCDC" transform="translate(507,245)"/>
<path d="M0 0 C0.99 0 1.98 0 3 0 C3 4.95 3 9.9 3 15 C-1.95 15 -6.9 15 -12 15 C-12 13.02 -12 11.04 -12 9 C-14.64 9 -17.28 9 -20 9 C-20 9.99 -20 10.98 -20 12 C-18.02 12 -16.04 12 -14 12 C-14 12.99 -14 13.98 -14 15 C-16.97 15 -19.94 15 -23 15 C-23 12.03 -23 9.06 -23 6 C-19.04 6 -15.08 6 -11 6 C-11 4.35 -11 2.7 -11 1 C-10.34 1 -9.68 1 -9 1 C-9 4.63 -9 8.26 -9 12 C-8.01 12 -7.02 12 -6 12 C-6 8.37 -6 4.74 -6 1 C-5.01 1 -4.02 1 -3 1 C-3 4.63 -3 8.26 -3 12 C-2.01 12 -1.02 12 0 12 C0 8.04 0 4.08 0 0 Z " fill="#F9DCDC" transform="translate(451,245)"/>
<path d="M0 0 C0.99 0 1.98 0 3 0 C3 4.95 3 9.9 3 15 C-1.95 15 -6.9 15 -12 15 C-12 13.02 -12 11.04 -12 9 C-14.64 9 -17.28 9 -20 9 C-20 9.99 -20 10.98 -20 12 C-18.02 12 -16.04 12 -14 12 C-14 12.99 -14 13.98 -14 15 C-16.97 15 -19.94 15 -23 15 C-23 12.03 -23 9.06 -23 6 C-19.04 6 -15.08 6 -11 6 C-11 4.35 -11 2.7 -11 1 C-10.34 1 -9.68 1 -9 1 C-9 4.63 -9 8.26 -9 12 C-8.01 12 -7.02 12 -6 12 C-6 8.37 -6 4.74 -6 1 C-5.01 1 -4.02 1 -3 1 C-3 4.63 -3 8.26 -3 12 C-2.01 12 -1.02 12 0 12 C0 8.04 0 4.08 0 0 Z " fill="#F9DCDC" transform="translate(395,245)"/>
<path d="M0 0 C0.99 0 1.98 0 3 0 C3 4.95 3 9.9 3 15 C-1.95 15 -6.9 15 -12 15 C-12 13.02 -12 11.04 -12 9 C-14.64 9 -17.28 9 -20 9 C-20 9.99 -20 10.98 -20 12 C-18.02 12 -16.04 12 -14 12 C-14 12.99 -14 13.98 -14 15 C-16.97 15 -19.94 15 -23 15 C-23 12.03 -23 9.06 -23 6 C-19.04 6 -15.08 6 -11 6 C-11 4.35 -11 2.7 -11 1 C-10.34 1 -9.68 1 -9 1 C-9 4.63 -9 8.26 -9 12 C-8.01 12 -7.02 12 -6 12 C-6 8.37 -6 4.74 -6 1 C-5.01 1 -4.02 1 -3 1 C-3 4.63 -3 8.26 -3 12 C-2.01 12 -1.02 12 0 12 C0 8.04 0 4.08 0 0 Z " fill="#F9DCDC" transform="translate(339,245)"/>
<path d="M0 0 C0.99 0 1.98 0 3 0 C3 4.95 3 9.9 3 15 C-1.95 15 -6.9 15 -12 15 C-12 13.02 -12 11.04 -12 9 C-14.64 9 -17.28 9 -20 9 C-20 9.99 -20 10.98 -20 12 C-18.02 12 -16.04 12 -14 12 C-14 12.99 -14 13.98 -14 15 C-16.97 15 -19.94 15 -23 15 C-23 12.03 -23 9.06 -23 6 C-19.04 6 -15.08 6 -11 6 C-11 4.35 -11 2.7 -11 1 C-10.34 1 -9.68 1 -9 1 C-9 4.63 -9 8.26 -9 12 C-8.01 12 -7.02 12 -6 12 C-6 8.37 -6 4.74 -6 1 C-5.01 1 -4.02 1 -3 1 C-3 4.63 -3 8.26 -3 12 C-2.01 12 -1.02 12 0 12 C0 8.04 0 4.08 0 0 Z " fill="#F9DCDC" transform="translate(283,245)"/>
<path d="M0 0 C0.99 0 1.98 0 3 0 C3 4.95 3 9.9 3 15 C-1.95 15 -6.9 15 -12 15 C-12 13.02 -12 11.04 -12 9 C-14.64 9 -17.28 9 -20 9 C-20 9.99 -20 10.98 -20 12 C-18.02 12 -16.04 12 -14 12 C-14 12.99 -14 13.98 -14 15 C-16.97 15 -19.94 15 -23 15 C-23 12.03 -23 9.06 -23 6 C-19.04 6 -15.08 6 -11 6 C-11 4.35 -11 2.7 -11 1 C-10.34 1 -9.68 1 -9 1 C-9 4.63 -9 8.26 -9 12 C-8.01 12 -7.02 12 -6 12 C-6 8.37 -6 4.74 -6 1 C-5.01 1 -4.02 1 -3 1 C-3 4.63 -3 8.26 -3 12 C-2.01 12 -1.02 12 0 12 C0 8.04 0 4.08 0 0 Z " fill="#F9DCDC" transform="translate(227,245)"/>
<path d="M0 0 C0.99 0 1.98 0 3 0 C3 4.95 3 9.9 3 15 C-1.95 15 -6.9 15 -12 15 C-12 13.02 -12 11.04 -12 9 C-14.64 9 -17.28 9 -20 9 C-20 9.99 -20 10.98 -20 12 C-18.02 12 -16.04 12 -14 12 C-14 12.99 -14 13.98 -14 15 C-16.97 15 -19.94 15 -23 15 C-23 12.03 -23 9.06 -23 6 C-19.04 6 -15.08 6 -11 6 C-11 4.35 -11 2.7 -11 1 C-10.34 1 -9.68 1 -9 1 C-9 4.63 -9 8.26 -9 12 C-8.01 12 -7.02 12 -6 12 C-6 8.37 -6 4.74 -6 1 C-5.01 1 -4.02 1 -3 1 C-3 4.63 -3 8.26 -3 12 C-2.01 12 -1.02 12 0 12 C0 8.04 0 4.08 0 0 Z " fill="#F9DCDC" transform="translate(171,245)"/>
<path d="M0 0 C0.99 0 1.98 0 3 0 C3 4.95 3 9.9 3 15 C-1.95 15 -6.9 15 -12 15 C-12 13.02 -12 11.04 -12 9 C-14.64 9 -17.28 9 -20 9 C-20 9.99 -20 10.98 -20 12 C-18.02 12 -16.04 12 -14 12 C-14 12.99 -14 13.98 -14 15 C-16.97 15 -19.94 15 -23 15 C-23 12.03 -23 9.06 -23 6 C-19.04 6 -15.08 6 -11 6 C-11 4.35 -11 2.7 -11 1 C-10.34 1 -9.68 1 -9 1 C-9 4.63 -9 8.26 -9 12 C-8.01 12 -7.02 12 -6 12 C-6 8.37 -6 4.74 -6 1 C-5.01 1 -4.02 1 -3 1 C-3 4.63 -3 8.26 -3 12 C-2.01 12 -1.02 12 0 12 C0 8.04 0 4.08 0 0 Z " fill="#F9DCDC" transform="translate(115,245)"/>
<path d="M0 0 C0.99 0 1.98 0 3 0 C3 4.95 3 9.9 3 15 C-1.95 15 -6.9 15 -12 15 C-12 13.02 -12 11.04 -12 9 C-14.64 9 -17.28 9 -20 9 C-20 9.99 -20 10.98 -20 12 C-18.02 12 -16.04 12 -14 12 C-14 12.99 -14 13.98 -14 15 C-16.97 15 -19.94 15 -23 15 C-23 12.03 -23 9.06 -23 6 C-19.04 6 -15.08 6 -11 6 C-11 4.35 -11 2.7 -11 1 C-10.34 1 -9.68 1 -9 1 C-9 4.63 -9 8.26 -9 12 C-8.01 12 -7.02 12 -6 12 C-6 8.37 -6 4.74 -6 1 C-5.01 1 -4.02 1 -3 1 C-3 4.63 -3 8.26 -3 12 C-2.01 12 -1.02 12 0 12 C0 8.04 0 4.08 0 0 Z " fill="#F9DCDC" transform="translate(59,245)"/>
<path d="M0 0 C0.99 0 1.98 0 3 0 C3 3.96 3 7.92 3 12 C3.99 12 4.98 12 6 12 C6 8.04 6 4.08 6 0 C6.99 0 7.98 0 9 0 C9 4.95 9 9.9 9 15 C4.38 15 -0.24 15 -5 15 C-5 13.02 -5 11.04 -5 9 C-7.97 9 -10.94 9 -14 9 C-14 9.99 -14 10.98 -14 12 C-12.02 12 -10.04 12 -8 12 C-8 12.66 -8 13.32 -8 14 C-10.64 14 -13.28 14 -16 14 C-16 11.36 -16 8.72 -16 6 C-12.37 6 -8.74 6 -5 6 C-5 4.35 -5 2.7 -5 1 C-4.34 1 -3.68 1 -3 1 C-3 4.63 -3 8.26 -3 12 C-2.01 12 -1.02 12 0 12 C0 8.04 0 4.08 0 0 Z " fill="#E7F4EA" transform="translate(613,100)"/>
<path d="M0 0 C0.99 0 1.98 0 3 0 C3 3.96 3 7.92 3 12 C3.99 12 4.98 12 6 12 C6 8.04 6 4.08 6 0 C6.99 0 7.98 0 9 0 C9 4.95 9 9.9 9 15 C4.38 15 -0.24 15 -5 15 C-5 13.02 -5 11.04 -5 9 C-7.97 9 -10.94 9 -14 9 C-14 9.99 -14 10.98 -14 12 C-12.02 12 -10.04 12 -8 12 C-8 12.66 -8 13.32 -8 14 C-10.64 14 -13.28 14 -16 14 C-16 11.36 -16 8.72 -16 6 C-12.37 6 -8.74 6 -5 6 C-5 4.35 -5 2.7 -5 1 C-4.34 1 -3.68 1 -3 1 C-3 4.63 -3 8.26 -3 12 C-2.01 12 -1.02 12 0 12 C0 8.04 0 4.08 0 0 Z " fill="#E7F4EA" transform="translate(557,100)"/>
<path d="M0 0 C0.99 0 1.98 0 3 0 C3 3.96 3 7.92 3 12 C3.99 12 4.98 12 6 12 C6 8.04 6 4.08 6 0 C6.99 0 7.98 0 9 0 C9 4.95 9 9.9 9 15 C4.38 15 -0.24 15 -5 15 C-5 13.02 -5 11.04 -5 9 C-7.97 9 -10.94 9 -14 9 C-14 9.99 -14 10.98 -14 12 C-12.02 12 -10.04 12 -8 12 C-8 12.66 -8 13.32 -8 14 C-10.64 14 -13.28 14 -16 14 C-16 11.36 -16 8.72 -16 6 C-12.37 6 -8.74 6 -5 6 C-5 4.35 -5 2.7 -5 1 C-4.34 1 -3.68 1 -3 1 C-3 4.63 -3 8.26 -3 12 C-2.01 12 -1.02 12 0 12 C0 8.04 0 4.08 0 0 Z " fill="#E7F4EA" transform="translate(501,100)"/>
<path d="M0 0 C0.99 0 1.98 0 3 0 C3 3.96 3 7.92 3 12 C3.99 12 4.98 12 6 12 C6 8.04 6 4.08 6 0 C6.99 0 7.98 0 9 0 C9 4.95 9 9.9 9 15 C4.38 15 -0.24 15 -5 15 C-5 13.02 -5 11.04 -5 9 C-7.97 9 -10.94 9 -14 9 C-14 9.99 -14 10.98 -14 12 C-12.02 12 -10.04 12 -8 12 C-8 12.66 -8 13.32 -8 14 C-10.64 14 -13.28 14 -16 14 C-16 11.36 -16 8.72 -16 6 C-12.37 6 -8.74 6 -5 6 C-5 4.35 -5 2.7 -5 1 C-4.34 1 -3.68 1 -3 1 C-3 4.63 -3 8.26 -3 12 C-2.01 12 -1.02 12 0 12 C0 8.04 0 4.08 0 0 Z " fill="#E7F4EA" transform="translate(445,100)"/>
<path d="M0 0 C0.99 0 1.98 0 3 0 C3 3.96 3 7.92 3 12 C3.99 12 4.98 12 6 12 C6 8.04 6 4.08 6 0 C6.99 0 7.98 0 9 0 C9 4.95 9 9.9 9 15 C4.38 15 -0.24 15 -5 15 C-5 13.02 -5 11.04 -5 9 C-7.97 9 -10.94 9 -14 9 C-14 9.99 -14 10.98 -14 12 C-12.02 12 -10.04 12 -8 12 C-8 12.66 -8 13.32 -8 14 C-10.64 14 -13.28 14 -16 14 C-16 11.36 -16 8.72 -16 6 C-12.37 6 -8.74 6 -5 6 C-5 4.35 -5 2.7 -5 1 C-4.34 1 -3.68 1 -3 1 C-3 4.63 -3 8.26 -3 12 C-2.01 12 -1.02 12 0 12 C0 8.04 0 4.08 0 0 Z " fill="#E7F4EA" transform="translate(389,100)"/>
<path d="M0 0 C0.99 0 1.98 0 3 0 C3 3.96 3 7.92 3 12 C3.99 12 4.98 12 6 12 C6 8.04 6 4.08 6 0 C6.99 0 7.98 0 9 0 C9 4.95 9 9.9 9 15 C4.38 15 -0.24 15 -5 15 C-5 13.02 -5 11.04 -5 9 C-7.97 9 -10.94 9 -14 9 C-14 9.99 -14 10.98 -14 12 C-12.02 12 -10.04 12 -8 12 C-8 12.66 -8 13.32 -8 14 C-10.64 14 -13.28 14 -16 14 C-16 11.36 -16 8.72 -16 6 C-12.37 6 -8.74 6 -5 6 C-5 4.35 -5 2.7 -5 1 C-4.34 1 -3.68 1 -3 1 C-3 4.63 -3 8.26 -3 12 C-2.01 12 -1.02 12 0 12 C0 8.04 0 4.08 0 0 Z " fill="#E7F4EA" transform="translate(333,100)"/>
<path d="M0 0 C0.99 0 1.98 0 3 0 C3 3.96 3 7.92 3 12 C3.99 12 4.98 12 6 12 C6 8.04 6 4.08 6 0 C6.99 0 7.98 0 9 0 C9 4.95 9 9.9 9 15 C4.38 15 -0.24 15 -5 15 C-5 13.02 -5 11.04 -5 9 C-7.97 9 -10.94 9 -14 9 C-14 9.99 -14 10.98 -14 12 C-12.02 12 -10.04 12 -8 12 C-8 12.66 -8 13.32 -8 14 C-10.64 14 -13.28 14 -16 14 C-16 11.36 -16 8.72 -16 6 C-12.37 6 -8.74 6 -5 6 C-5 4.35 -5 2.7 -5 1 C-4.34 1 -3.68 1 -3 1 C-3 4.63 -3 8.26 -3 12 C-2.01 12 -1.02 12 0 12 C0 8.04 0 4.08 0 0 Z " fill="#E7F4EA" transform="translate(277,100)"/>
<path d="M0 0 C0.99 0 1.98 0 3 0 C3 3.96 3 7.92 3 12 C3.99 12 4.98 12 6 12 C6 8.04 6 4.08 6 0 C6.99 0 7.98 0 9 0 C9 4.95 9 9.9 9 15 C4.38 15 -0.24 15 -5 15 C-5 13.02 -5 11.04 -5 9 C-7.97 9 -10.94 9 -14 9 C-14 9.99 -14 10.98 -14 12 C-12.02 12 -10.04 12 -8 12 C-8 12.66 -8 13.32 -8 14 C-10.64 14 -13.28 14 -16 14 C-16 11.36 -16 8.72 -16 6 C-12.37 6 -8.74 6 -5 6 C-5 4.35 -5 2.7 -5 1 C-4.34 1 -3.68 1 -3 1 C-3 4.63 -3 8.26 -3 12 C-2.01 12 -1.02 12 0 12 C0 8.04 0 4.08 0 0 Z " fill="#E7F4EA" transform="translate(221,100)"/>
<path d="M0 0 C0.99 0 1.98 0 3 0 C3 3.96 3 7.92 3 12 C3.99 12 4.98 12 6 12 C6 8.04 6 4.08 6 0 C6.99 0 7.98 0 9 0 C9 4.95 9 9.9 9 15 C4.38 15 -0.24 15 -5 15 C-5 13.02 -5 11.04 -5 9 C-7.97 9 -10.94 9 -14 9 C-14 9.99 -14 10.98 -14 12 C-12.02 12 -10.04 12 -8 12 C-8 12.66 -8 13.32 -8 14 C-10.64 14 -13.28 14 -16 14 C-16 11.36 -16 8.72 -16 6 C-12.37 6 -8.74 6 -5 6 C-5 4.35 -5 2.7 -5 1 C-4.34 1 -3.68 1 -3 1 C-3 4.63 -3 8.26 -3 12 C-2.01 12 -1.02 12 0 12 C0 8.04 0 4.08 0 0 Z " fill="#E7F4EA" transform="translate(165,100)"/>
<path d="M0 0 C0.99 0 1.98 0 3 0 C3 3.96 3 7.92 3 12 C3.99 12 4.98 12 6 12 C6 8.04 6 4.08 6 0 C6.99 0 7.98 0 9 0 C9 4.95 9 9.9 9 15 C4.38 15 -0.24 15 -5 15 C-5 13.02 -5 11.04 -5 9 C-7.97 9 -10.94 9 -14 9 C-14 9.99 -14 10.98 -14 12 C-12.02 12 -10.04 12 -8 12 C-8 12.66 -8 13.32 -8 14 C-10.64 14 -13.28 14 -16 14 C-16 11.36 -16 8.72 -16 6 C-12.37 6 -8.74 6 -5 6 C-5 4.35 -5 2.7 -5 1 C-4.34 1 -3.68 1 -3 1 C-3 4.63 -3 8.26 -3 12 C-2.01 12 -1.02 12 0 12 C0 8.04 0 4.08 0 0 Z " fill="#E7F4EA" transform="translate(109,100)"/>
<path d="M0 0 C0.99 0 1.98 0 3 0 C3 3.96 3 7.92 3 12 C3.99 12 4.98 12 6 12 C6 8.04 6 4.08 6 0 C6.99 0 7.98 0 9 0 C9 4.95 9 9.9 9 15 C4.38 15 -0.24 15 -5 15 C-5 13.02 -5 11.04 -5 9 C-7.97 9 -10.94 9 -14 9 C-14 9.99 -14 10.98 -14 12 C-12.02 12 -10.04 12 -8 12 C-8 12.66 -8 13.32 -8 14 C-10.64 14 -13.28 14 -16 14 C-16 11.36 -16 8.72 -16 6 C-12.37 6 -8.74 6 -5 6 C-5 4.35 -5 2.7 -5 1 C-4.34 1 -3.68 1 -3 1 C-3 4.63 -3 8.26 -3 12 C-2.01 12 -1.02 12 0 12 C0 8.04 0 4.08 0 0 Z " fill="#E7F4EA" transform="translate(53,100)"/>
<path d="M0 0 C4.62 0 9.24 0 14 0 C14 1.98 14 3.96 14 6 C16.97 6 19.94 6 23 6 C23 5.01 23 4.02 23 3 C21.02 3 19.04 3 17 3 C17 2.01 17 1.02 17 0 C19.97 0 22.94 0 26 0 C26 2.97 26 5.94 26 9 C21.05 9 16.1 9 11 9 C11 7.02 11 5.04 11 3 C8.36 3 5.72 3 3 3 C3 4.98 3 6.96 3 9 C2.01 9 1.02 9 0 9 C0 6.03 0 3.06 0 0 Z " fill="#F9D8D8" transform="translate(568,251)"/>
<path d="M0 0 C4.62 0 9.24 0 14 0 C14 1.98 14 3.96 14 6 C16.97 6 19.94 6 23 6 C23 5.01 23 4.02 23 3 C21.02 3 19.04 3 17 3 C17 2.01 17 1.02 17 0 C19.97 0 22.94 0 26 0 C26 2.97 26 5.94 26 9 C21.05 9 16.1 9 11 9 C11 7.02 11 5.04 11 3 C8.36 3 5.72 3 3 3 C3 4.98 3 6.96 3 9 C2.01 9 1.02 9 0 9 C0 6.03 0 3.06 0 0 Z " fill="#F9D8D8" transform="translate(512,251)"/>
<path d="M0 0 C4.62 0 9.24 0 14 0 C14 1.98 14 3.96 14 6 C16.97 6 19.94 6 23 6 C23 5.01 23 4.02 23 3 C21.02 3 19.04 3 17 3 C17 2.01 17 1.02 17 0 C19.97 0 22.94 0 26 0 C26 2.97 26 5.94 26 9 C21.05 9 16.1 9 11 9 C11 7.02 11 5.04 11 3 C8.36 3 5.72 3 3 3 C3 4.98 3 6.96 3 9 C2.01 9 1.02 9 0 9 C0 6.03 0 3.06 0 0 Z " fill="#F9D8D8" transform="translate(456,251)"/>
<path d="M0 0 C4.62 0 9.24 0 14 0 C14 1.98 14 3.96 14 6 C16.97 6 19.94 6 23 6 C23 5.01 23 4.02 23 3 C21.02 3 19.04 3 17 3 C17 2.01 17 1.02 17 0 C19.97 0 22.94 0 26 0 C26 2.97 26 5.94 26 9 C21.05 9 16.1 9 11 9 C11 7.02 11 5.04 11 3 C8.36 3 5.72 3 3 3 C3 4.98 3 6.96 3 9 C2.01 9 1.02 9 0 9 C0 6.03 0 3.06 0 0 Z " fill="#F9D8D8" transform="translate(400,251)"/>
<path d="M0 0 C4.62 0 9.24 0 14 0 C14 1.98 14 3.96 14 6 C16.97 6 19.94 6 23 6 C23 5.01 23 4.02 23 3 C21.02 3 19.04 3 17 3 C17 2.01 17 1.02 17 0 C19.97 0 22.94 0 26 0 C26 2.97 26 5.94 26 9 C21.05 9 16.1 9 11 9 C11 7.02 11 5.04 11 3 C8.36 3 5.72 3 3 3 C3 4.98 3 6.96 3 9 C2.01 9 1.02 9 0 9 C0 6.03 0 3.06 0 0 Z " fill="#F9D8D8" transform="translate(344,251)"/>
<path d="M0 0 C4.62 0 9.24 0 14 0 C14 1.98 14 3.96 14 6 C16.97 6 19.94 6 23 6 C23 5.01 23 4.02 23 3 C21.02 3 19.04 3 17 3 C17 2.01 17 1.02 17 0 C19.97 0 22.94 0 26 0 C26 2.97 26 5.94 26 9 C21.05 9 16.1 9 11 9 C11 7.02 11 5.04 11 3 C8.36 3 5.72 3 3 3 C3 4.98 3 6.96 3 9 C2.01 9 1.02 9 0 9 C0 6.03 0 3.06 0 0 Z " fill="#F9D8D8" transform="translate(288,251)"/>
<path d="M0 0 C4.62 0 9.24 0 14 0 C14 1.98 14 3.96 14 6 C16.97 6 19.94 6 23 6 C23 5.01 23 4.02 23 3 C21.02 3 19.04 3 17 3 C17 2.01 17 1.02 17 0 C19.97 0 22.94 0 26 0 C26 2.97 26 5.94 26 9 C21.05 9 16.1 9 11 9 C11 7.02 11 5.04 11 3 C8.36 3 5.72 3 3 3 C3 4.98 3 6.96 3 9 C2.01 9 1.02 9 0 9 C0 6.03 0 3.06 0 0 Z " fill="#F9D8D8" transform="translate(232,251)"/>
<path d="M0 0 C4.62 0 9.24 0 14 0 C14 1.98 14 3.96 14 6 C16.97 6 19.94 6 23 6 C23 5.01 23 4.02 23 3 C21.02 3 19.04 3 17 3 C17 2.01 17 1.02 17 0 C19.97 0 22.94 0 26 0 C26 2.97 26 5.94 26 9 C21.05 9 16.1 9 11 9 C11 7.02 11 5.04 11 3 C8.36 3 5.72 3 3 3 C3 4.98 3 6.96 3 9 C2.01 9 1.02 9 0 9 C0 6.03 0 3.06 0 0 Z " fill="#F9D8D8" transform="translate(176,251)"/>
<path d="M0 0 C4.62 0 9.24 0 14 0 C14 1.98 14 3.96 14 6 C16.97 6 19.94 6 23 6 C23 5.01 23 4.02 23 3 C21.02 3 19.04 3 17 3 C17 2.01 17 1.02 17 0 C19.97 0 22.94 0 26 0 C26 2.97 26 5.94 26 9 C21.05 9 16.1 9 11 9 C11 7.02 11 5.04 11 3 C8.36 3 5.72 3 3 3 C3 4.98 3 6.96 3 9 C2.01 9 1.02 9 0 9 C0 6.03 0 3.06 0 0 Z " fill="#F9D8D8" transform="translate(120,251)"/>
<path d="M0 0 C4.62 0 9.24 0 14 0 C14 1.98 14 3.96 14 6 C16.97 6 19.94 6 23 6 C23 5.01 23 4.02 23 3 C21.02 3 19.04 3 17 3 C17 2.01 17 1.02 17 0 C19.97 0 22.94 0 26 0 C26 2.97 26 5.94 26 9 C21.05 9 16.1 9 11 9 C11 7.02 11 5.04 11 3 C8.36 3 5.72 3 3 3 C3 4.98 3 6.96 3 9 C2.01 9 1.02 9 0 9 C0 6.03 0 3.06 0 0 Z " fill="#F9D8D8" transform="translate(64,251)"/>
<path d="M0 0 C4.62 0 9.24 0 14 0 C14 1.98 14 3.96 14 6 C16.97 6 19.94 6 23 6 C23 5.01 23 4.02 23 3 C21.02 3 19.04 3 17 3 C17 2.01 17 1.02 17 0 C19.97 0 22.94 0 26 0 C26 2.97 26 5.94 26 9 C21.05 9 16.1 9 11 9 C11 7.02 11 5.04 11 3 C8.36 3 5.72 3 3 3 C3 4.98 3 6.96 3 9 C2.01 9 1.02 9 0 9 C0 6.03 0 3.06 0 0 Z " fill="#F9D8D8" transform="translate(8,251)"/>
<path d="M0 0 C12.21 0 24.42 0 37 0 C37 1.32 37 2.64 37 4 C24.79 4 12.58 4 0 4 C0 2.68 0 1.36 0 0 Z " fill="#F3AFAF" transform="translate(568,245)"/>
<path d="M0 0 C12.21 0 24.42 0 37 0 C37 1.32 37 2.64 37 4 C24.79 4 12.58 4 0 4 C0 2.68 0 1.36 0 0 Z " fill="#F3AFAF" transform="translate(512,245)"/>
<path d="M0 0 C12.21 0 24.42 0 37 0 C37 1.32 37 2.64 37 4 C24.79 4 12.58 4 0 4 C0 2.68 0 1.36 0 0 Z " fill="#F3AFAF" transform="translate(456,245)"/>
<path d="M0 0 C12.21 0 24.42 0 37 0 C37 1.32 37 2.64 37 4 C24.79 4 12.58 4 0 4 C0 2.68 0 1.36 0 0 Z " fill="#F3AFAF" transform="translate(400,245)"/>
<path d="M0 0 C12.21 0 24.42 0 37 0 C37 1.32 37 2.64 37 4 C24.79 4 12.58 4 0 4 C0 2.68 0 1.36 0 0 Z " fill="#F3AFAF" transform="translate(344,245)"/>
<path d="M0 0 C12.21 0 24.42 0 37 0 C37 1.32 37 2.64 37 4 C24.79 4 12.58 4 0 4 C0 2.68 0 1.36 0 0 Z " fill="#F3AFAF" transform="translate(288,245)"/>
<path d="M0 0 C12.21 0 24.42 0 37 0 C37 1.32 37 2.64 37 4 C24.79 4 12.58 4 0 4 C0 2.68 0 1.36 0 0 Z " fill="#F3AFAF" transform="translate(232,245)"/>
<path d="M0 0 C12.21 0 24.42 0 37 0 C37 1.32 37 2.64 37 4 C24.79 4 12.58 4 0 4 C0 2.68 0 1.36 0 0 Z " fill="#F3AFAF" transform="translate(176,245)"/>
<path d="M0 0 C12.21 0 24.42 0 37 0 C37 1.32 37 2.64 37 4 C24.79 4 12.58 4 0 4 C0 2.68 0 1.36 0 0 Z " fill="#F3AFAF" transform="translate(120,245)"/>
<path d="M0 0 C12.21 0 24.42 0 37 0 C37 1.32 37 2.64 37 4 C24.79 4 12.58 4 0 4 C0 2.68 0 1.36 0 0 Z " fill="#F3AFAF" transform="translate(64,245)"/>
<path d="M0 0 C12.21 0 24.42 0 37 0 C37 1.32 37 2.64 37 4 C24.79 4 12.58 4 0 4 C0 2.68 0 1.36 0 0 Z " fill="#F3AFAF" transform="translate(8,245)"/>
<path d="M0 0 C4.62 0 9.24 0 14 0 C14 1.98 14 3.96 14 6 C16.97 6 19.94 6 23 6 C23 5.01 23 4.02 23 3 C21.02 3 19.04 3 17 3 C17 2.01 17 1.02 17 0 C19.64 0 22.28 0 25 0 C25 2.64 25 5.28 25 8 C20.71 8 16.42 8 12 8 C12 6.35 12 4.7 12 3 C9.03 3 6.06 3 3 3 C3 4.98 3 6.96 3 9 C2.01 9 1.02 9 0 9 C0 6.03 0 3.06 0 0 Z " fill="#EFF8F1" transform="translate(568,106)"/>
<path d="M0 0 C4.62 0 9.24 0 14 0 C14 1.98 14 3.96 14 6 C16.97 6 19.94 6 23 6 C23 5.01 23 4.02 23 3 C21.02 3 19.04 3 17 3 C17 2.01 17 1.02 17 0 C19.64 0 22.28 0 25 0 C25 2.64 25 5.28 25 8 C20.71 8 16.42 8 12 8 C12 6.35 12 4.7 12 3 C9.03 3 6.06 3 3 3 C3 4.98 3 6.96 3 9 C2.01 9 1.02 9 0 9 C0 6.03 0 3.06 0 0 Z " fill="#EFF8F1" transform="translate(512,106)"/>
<path d="M0 0 C4.62 0 9.24 0 14 0 C14 1.98 14 3.96 14 6 C16.97 6 19.94 6 23 6 C23 5.01 23 4.02 23 3 C21.02 3 19.04 3 17 3 C17 2.01 17 1.02 17 0 C19.64 0 22.28 0 25 0 C25 2.64 25 5.28 25 8 C20.71 8 16.42 8 12 8 C12 6.35 12 4.7 12 3 C9.03 3 6.06 3 3 3 C3 4.98 3 6.96 3 9 C2.01 9 1.02 9 0 9 C0 6.03 0 3.06 0 0 Z " fill="#EFF8F1" transform="translate(456,106)"/>
<path d="M0 0 C4.62 0 9.24 0 14 0 C14 1.98 14 3.96 14 6 C16.97 6 19.94 6 23 6 C23 5.01 23 4.02 23 3 C21.02 3 19.04 3 17 3 C17 2.01 17 1.02 17 0 C19.64 0 22.28 0 25 0 C25 2.64 25 5.28 25 8 C20.71 8 16.42 8 12 8 C12 6.35 12 4.7 12 3 C9.03 3 6.06 3 3 3 C3 4.98 3 6.96 3 9 C2.01 9 1.02 9 0 9 C0 6.03 0 3.06 0 0 Z " fill="#EFF8F1" transform="translate(400,106)"/>
<path d="M0 0 C4.62 0 9.24 0 14 0 C14 1.98 14 3.96 14 6 C16.97 6 19.94 6 23 6 C23 5.01 23 4.02 23 3 C21.02 3 19.04 3 17 3 C17 2.01 17 1.02 17 0 C19.64 0 22.28 0 25 0 C25 2.64 25 5.28 25 8 C20.71 8 16.42 8 12 8 C12 6.35 12 4.7 12 3 C9.03 3 6.06 3 3 3 C3 4.98 3 6.96 3 9 C2.01 9 1.02 9 0 9 C0 6.03 0 3.06 0 0 Z " fill="#EFF8F1" transform="translate(344,106)"/>
<path d="M0 0 C4.62 0 9.24 0 14 0 C14 1.98 14 3.96 14 6 C16.97 6 19.94 6 23 6 C23 5.01 23 4.02 23 3 C21.02 3 19.04 3 17 3 C17 2.01 17 1.02 17 0 C19.64 0 22.28 0 25 0 C25 2.64 25 5.28 25 8 C20.71 8 16.42 8 12 8 C12 6.35 12 4.7 12 3 C9.03 3 6.06 3 3 3 C3 4.98 3 6.96 3 9 C2.01 9 1.02 9 0 9 C0 6.03 0 3.06 0 0 Z " fill="#EFF8F1" transform="translate(288,106)"/>
<path d="M0 0 C4.62 0 9.24 0 14 0 C14 1.98 14 3.96 14 6 C16.97 6 19.94 6 23 6 C23 5.01 23 4.02 23 3 C21.02 3 19.04 3 17 3 C17 2.01 17 1.02 17 0 C19.64 0 22.28 0 25 0 C25 2.64 25 5.28 25 8 C20.71 8 16.42 8 12 8 C12 6.35 12 4.7 12 3 C9.03 3 6.06 3 3 3 C3 4.98 3 6.96 3 9 C2.01 9 1.02 9 0 9 C0 6.03 0 3.06 0 0 Z " fill="#EFF8F1" transform="translate(232,106)"/>
<path d="M0 0 C4.62 0 9.24 0 14 0 C14 1.98 14 3.96 14 6 C16.97 6 19.94 6 23 6 C23 5.01 23 4.02 23 3 C21.02 3 19.04 3 17 3 C17 2.01 17 1.02 17 0 C19.64 0 22.28 0 25 0 C25 2.64 25 5.28 25 8 C20.71 8 16.42 8 12 8 C12 6.35 12 4.7 12 3 C9.03 3 6.06 3 3 3 C3 4.98 3 6.96 3 9 C2.01 9 1.02 9 0 9 C0 6.03 0 3.06 0 0 Z " fill="#EFF8F1" transform="translate(176,106)"/>
<path d="M0 0 C4.62 0 9.24 0 14 0 C14 1.98 14 3.96 14 6 C16.97 6 19.94 6 23 6 C23 5.01 23 4.02 23 3 C21.02 3 19.04 3 17 3 C17 2.01 17 1.02 17 0 C19.64 0 22.28 0 25 0 C25 2.64 25 5.28 25 8 C20.71 8 16.42 8 12 8 C12 6.35 12 4.7 12 3 C9.03 3 6.06 3 3 3 C3 4.98 3 6.96 3 9 C2.01 9 1.02 9 0 9 C0 6.03 0 3.06 0 0 Z " fill="#EFF8F1" transform="translate(120,106)"/>
<path d="M0 0 C4.62 0 9.24 0 14 0 C14 1.98 14 3.96 14 6 C16.97 6 19.94 6 23 6 C23 5.01 23 4.02 23 3 C21.02 3 19.04 3 17 3 C17 2.01 17 1.02 17 0 C19.64 0 22.28 0 25 0 C25 2.64 25 5.28 25 8 C20.71 8 16.42 8 12 8 C12 6.35 12 4.7 12 3 C9.03 3 6.06 3 3 3 C3 4.98 3 6.96 3 9 C2.01 9 1.02 9 0 9 C0 6.03 0 3.06 0 0 Z " fill="#EFF8F1" transform="translate(64,106)"/>
<path d="M0 0 C4.62 0 9.24 0 14 0 C14 1.98 14 3.96 14 6 C16.97 6 19.94 6 23 6 C23 5.01 23 4.02 23 3 C21.02 3 19.04 3 17 3 C17 2.01 17 1.02 17 0 C19.64 0 22.28 0 25 0 C25 2.64 25 5.28 25 8 C20.71 8 16.42 8 12 8 C12 6.35 12 4.7 12 3 C9.03 3 6.06 3 3 3 C3 4.98 3 6.96 3 9 C2.01 9 1.02 9 0 9 C0 6.03 0 3.06 0 0 Z " fill="#EFF8F1" transform="translate(8,106)"/>
<path d="M0 0 C12.21 0 24.42 0 37 0 C37 0.99 37 1.98 37 3 C24.79 3 12.58 3 0 3 C0 2.01 0 1.02 0 0 Z " fill="#DEF0E3" transform="translate(568,100)"/>
<path d="M0 0 C12.21 0 24.42 0 37 0 C37 0.99 37 1.98 37 3 C24.79 3 12.58 3 0 3 C0 2.01 0 1.02 0 0 Z " fill="#DEF0E3" transform="translate(512,100)"/>
<path d="M0 0 C12.21 0 24.42 0 37 0 C37 0.99 37 1.98 37 3 C24.79 3 12.58 3 0 3 C0 2.01 0 1.02 0 0 Z " fill="#DEF0E3" transform="translate(456,100)"/>
<path d="M0 0 C12.21 0 24.42 0 37 0 C37 0.99 37 1.98 37 3 C24.79 3 12.58 3 0 3 C0 2.01 0 1.02 0 0 Z " fill="#DEF0E3" transform="translate(400,100)"/>
<path d="M0 0 C12.21 0 24.42 0 37 0 C37 0.99 37 1.98 37 3 C24.79 3 12.58 3 0 3 C0 2.01 0 1.02 0 0 Z " fill="#DEF0E3" transform="translate(344,100)"/>
<path d="M0 0 C12.21 0 24.42 0 37 0 C37 0.99 37 1.98 37 3 C24.79 3 12.58 3 0 3 C0 2.01 0 1.02 0 0 Z " fill="#DEF0E3" transform="translate(288,100)"/>
<path d="M0 0 C12.21 0 24.42 0 37 0 C37 0.99 37 1.98 37 3 C24.79 3 12.58 3 0 3 C0 2.01 0 1.02 0 0 Z " fill="#DEF0E3" transform="translate(232,100)"/>
<path d="M0 0 C12.21 0 24.42 0 37 0 C37 0.99 37 1.98 37 3 C24.79 3 12.58 3 0 3 C0 2.01 0 1.02 0 0 Z " fill="#DEF0E3" transform="translate(176,100)"/>
<path d="M0 0 C12.21 0 24.42 0 37 0 C37 0.99 37 1.98 37 3 C24.79 3 12.58 3 0 3 C0 2.01 0 1.02 0 0 Z " fill="#DEF0E3" transform="translate(120,100)"/>
<path d="M0 0 C12.21 0 24.42 0 37 0 C37 0.99 37 1.98 37 3 C24.79 3 12.58 3 0 3 C0 2.01 0 1.02 0 0 Z " fill="#DEF0E3" transform="translate(64,100)"/>
<path d="M0 0 C12.21 0 24.42 0 37 0 C37 0.99 37 1.98 37 3 C24.79 3 12.58 3 0 3 C0 2.01 0 1.02 0 0 Z " fill="#DEF0E3" transform="translate(8,100)"/>
<path d="M0 0 C0.5259375 0.7425 0.5259375 0.7425 1.0625 1.5 C3.96292076 3.74548704 6.42415459 3.18820239 10 3 C14 3 18 3 22 3 C22.33 2.01 22.66 1.02 23 0 C23.6875 1.75 23.6875 1.75 24 4 C23 6.25 23 6.25 21 8 C17.5625 8.25 17.5625 8.25 14 8 C11.47778963 8 8.95352278 8.073437 6.4375 8.25 C3 8 3 8 1.0625 6.25 C0 4 0 4 0 0 Z " fill="#DD1A1A" transform="translate(303,137)"/>
</svg>
