<?xml version="1.0" encoding="UTF-8"?>
<svg version="1.1" xmlns="http://www.w3.org/2000/svg" width="800" height="400">
<path d="M0 0 C264 0 528 0 800 0 C800 132 800 264 800 400 C536 400 272 400 0 400 C0 268 0 136 0 0 Z " fill="#D11033" transform="translate(0,0)"/>
<path d="M0 0 C6.01945235 4.01296824 11.73553587 8.02350334 17.375 12.5 C23.61102729 17.4009923 29.90990029 22.19375935 36.3125 26.875 C43.10162903 31.84053902 49.82147972 36.88665246 56.5 42 C63.11938274 47.0666281 69.77503207 52.07435459 76.5 57 C84.12740017 62.5866242 91.65644565 68.29276338 99.1640625 74.0390625 C104.89902727 78.42064326 110.67759563 82.73542958 116.5 87 C124.12740017 92.5866242 131.65644565 98.29276338 139.1640625 104.0390625 C144.89902727 108.42064326 150.67759563 112.73542958 156.5 117 C164.12740017 122.5866242 171.65644565 128.29276338 179.1640625 134.0390625 C184.89902727 138.42064326 190.67759563 142.73542958 196.5 147 C203.22497252 151.92564877 209.88045965 156.93357332 216.5 162 C223.89908419 167.66179578 231.3512507 173.24124879 238.86450195 178.75048828 C247.96427889 185.42730447 256.98207853 192.21324287 266 199 C264.88024077 202.35927769 264.26397398 202.80914756 261.484375 204.79296875 C260.73865234 205.33244141 259.99292969 205.87191406 259.22460938 206.42773438 C258.40798828 207.00845703 257.59136719 207.58917969 256.75 208.1875 C255.00402035 209.45018186 253.25927228 210.71456805 251.515625 211.98046875 C250.60619141 212.63966309 249.69675781 213.29885742 248.75976562 213.97802734 C244.28963339 217.25311892 239.89618709 220.62666785 235.5 224 C228.12390482 229.64719589 220.68853597 235.20206414 213.19262695 240.68896484 C206.06393732 245.92060564 199.03516118 251.27966305 192.02734375 256.671875 C191.1971875 257.30867188 190.36703125 257.94546875 189.51171875 258.6015625 C188.78428467 259.16182129 188.05685059 259.72208008 187.30737305 260.29931641 C184.60395334 262.29191207 181.79436577 264.13708949 179 266 C486.395 266.495 486.395 266.495 800 267 C800 310.89 800 354.78 800 400 C536 400 272 400 0 400 C0 268 0 136 0 0 Z " fill="#000000" transform="translate(0,0)"/>
<path d="M0 0 C205.26 0 410.52 0 622 0 C622 44.22 622 88.44 622 134 C416.74 134 211.48 134 0 134 C5.61904762 128.38095238 5.61904762 128.38095238 8.90625 126.01171875 C9.63908203 125.47869141 10.37191406 124.94566406 11.12695312 124.39648438 C11.91005859 123.83251953 12.69316406 123.26855469 13.5 122.6875 C20.56680464 117.54251481 27.5620758 112.31748592 34.5 107 C41.87353438 101.35548364 49.30537478 95.8020353 56.79858398 90.31762695 C64.04844139 84.99740678 71.19500193 79.54497553 78.32421875 74.06445312 C79.16726563 73.41798828 80.0103125 72.77152344 80.87890625 72.10546875 C81.6272876 71.52949951 82.37566895 70.95353027 83.14672852 70.36010742 C85 69 85 69 87 68 C87 67.34 87 66.68 87 66 C85.53825674 64.65128674 85.53825674 64.65128674 83.58203125 63.3046875 C82.45861328 62.49064453 82.45861328 62.49064453 81.3125 61.66015625 C80.4875 61.07105469 79.6625 60.48195312 78.8125 59.875 C77.05742772 58.60317002 75.30356404 57.3296709 73.55078125 56.0546875 C72.63506348 55.38920898 71.7193457 54.72373047 70.77587891 54.03808594 C66.30306545 50.75408886 61.90251451 47.37732764 57.5 44 C50.12300411 38.35227328 42.68625455 32.79758829 35.19042969 27.30883789 C28.09636377 22.10122289 21.09715072 16.77278613 14.11523438 11.41601562 C10.41378189 8.58006255 6.71040053 5.77284007 2.890625 3.09765625 C1.93671875 2.40542969 0.9828125 1.71320313 0 1 C0 0.67 0 0.34 0 0 Z " fill="#FEFDFD" transform="translate(178,133)"/>
<path d="M0 0 C6.01945235 4.01296824 11.73553587 8.02350334 17.375 12.5 C23.61102729 17.4009923 29.90990029 22.19375935 36.3125 26.875 C43.10162903 31.84053902 49.82147972 36.88665246 56.5 42 C63.11938274 47.0666281 69.77503207 52.07435459 76.5 57 C84.12740017 62.5866242 91.65644565 68.29276338 99.1640625 74.0390625 C104.89902727 78.42064326 110.67759563 82.73542958 116.5 87 C124.12740017 92.5866242 131.65644565 98.29276338 139.1640625 104.0390625 C144.89902727 108.42064326 150.67759563 112.73542958 156.5 117 C164.12740017 122.5866242 171.65644565 128.29276338 179.1640625 134.0390625 C184.89902727 138.42064326 190.67759563 142.73542958 196.5 147 C203.22497252 151.92564877 209.88045965 156.93357332 216.5 162 C223.89908419 167.66179578 231.3512507 173.24124879 238.86450195 178.75048828 C247.96427889 185.42730447 256.98207853 192.21324287 266 199 C264.88024077 202.35927769 264.26397398 202.80914756 261.484375 204.79296875 C260.73865234 205.33244141 259.99292969 205.87191406 259.22460938 206.42773438 C258.40798828 207.00845703 257.59136719 207.58917969 256.75 208.1875 C255.00402035 209.45018186 253.25927228 210.71456805 251.515625 211.98046875 C250.60619141 212.63966309 249.69675781 213.29885742 248.75976562 213.97802734 C244.28963339 217.25311892 239.89618709 220.62666785 235.5 224 C228.11434591 229.65451428 220.66803429 235.21471736 213.1640625 240.7109375 C207.22328567 245.07277032 201.3524674 249.52054548 195.5 254 C188.11358208 259.65353395 180.66805534 265.21470194 173.1640625 270.7109375 C167.22328567 275.07277032 161.3524674 279.52054548 155.5 284 C148.11358208 289.65353395 140.66805534 295.21470194 133.1640625 300.7109375 C127.22328567 305.07277032 121.3524674 309.52054548 115.5 314 C108.11358208 319.65353395 100.66805534 325.21470194 93.1640625 330.7109375 C87.22328567 335.07277032 81.3524674 339.52054548 75.5 344 C68.11358208 349.65353395 60.66805534 355.21470194 53.1640625 360.7109375 C47.22328159 365.07277332 41.35260442 369.52071939 35.5 374 C28.56227307 379.30710039 21.59238797 384.56545762 14.5625 389.75 C13.78777344 390.32234375 13.01304688 390.8946875 12.21484375 391.484375 C11.48523437 392.020625 10.755625 392.556875 10.00390625 393.109375 C9.37299072 393.57311523 8.7420752 394.03685547 8.09204102 394.51464844 C5.43498066 396.40116439 2.71137504 398.19241664 0 400 C0 268 0 136 0 0 Z " fill="#007129" transform="translate(0,0)"/>
</svg>
